<svg xmlns="http://www.w3.org/2000/svg"
     width="43pt" height="43pt" viewBox="0 0 43 43" preserveAspectRatio="xMidYMid meet">
    <g transform="translate(0,43) scale(0.1,-0.1)" stroke="none">
        <path fill="#000000" d="M192 395 c-7 -14 -12 -41 -12 -59 0 -21 -8 -40 -21 -52 -23 -21 -59
-85 -59 -106 0 -7 -16 -25 -35 -41 -19 -15 -39 -36 -45 -47 -9 -17 -4 -23 42
-46 59 -31 156 -41 220 -24 45 13 93 51 115 93 22 44 20 119 -6 159 -11 18
-29 45 -38 60 -16 25 -117 88 -140 88 -6 0 -15 -11 -21 -25z"/>

        <path fill="#FFFFFF" d="M286 313 c70 -36 82 -48 90 -91 6 -28 4 -32 -15 -32 -12 0 -35 -7 -51 -15
-25 -13 -27 -18 -20 -47 4 -18 11 -41 15 -50 5 -13 -2 -19 -36 -28 -39 -11 -48
-9 -113 21 -87 39 -84 36 -60 54 28 21 37 18 56 -15 28 -49 98 -38 98 16 0 30
-25 48 -66 47 -36 -1 -43 7 -20 26 8 7 17 23 20 36 6 25 26 35 26 13 0 -22 33
-48 60 -48 38 0 56 24 44 58 -8 23 -17 28 -54 32 -41 5 -45 8 -48 34 -2 15 0
27 5 25 4 -2 35 -18 69 -36z M288 243 c2 -8 -5 -13 -17 -13 -12 0 -21 6 -21 16
0 18 31 15 38 -3z M220 124 c0 -9 -7 -14 -17 -12 -25 5 -28 28 -4 28 12 0 21 -6 21 -16z"/>
    </g>
</svg>
