<svg xmlns="http://www.w3.org/2000/svg" width="1024" height="1024" viewBox="0 0 1024 1024">
<g>
<path d="M 0.00 0.00 L 1024.00 0.00 L 1024.00 1024.00 L 0.00 1024.00 ZM 398.50 691.90 C404.43,693.93 405.82,693.95 519.07,693.73 L 633.64 693.50 L 639.53 690.49 C650.56,684.85 655.60,674.62 654.80,659.48 C654.09,645.96 648.44,637.06 638.25,633.43 C635.24,632.35 618.18,632.08 551.25,632.04 C505.46,632.02 468.01,631.66 468.01,631.25 C468.02,630.61 494.90,596.94 574.40,497.93 C582.15,488.27 597.25,469.60 607.95,456.43 C618.65,443.27 631.99,426.85 637.59,419.94 C643.19,413.03 649.05,404.93 650.60,401.94 C653.18,396.98 653.46,395.38 653.81,383.91 C654.15,372.61 653.96,370.79 651.97,366.15 C649.57,360.57 644.76,355.71 639.07,353.12 C635.84,351.66 624.48,351.50 520.00,351.50 C404.71,351.50 404.49,351.50 400.00,353.60 C389.93,358.31 385.80,365.43 385.20,379.11 C384.64,391.83 386.44,398.23 392.25,404.16 C393.62,405.56 394.64,406.71 395.82,407.66 C401.28,412.02 410.23,412.02 473.55,412.01 C476.83,412.01 480.25,412.01 483.83,412.00 C535.89,412.00 561.06,412.33 560.83,413.02 C560.36,414.43 551.28,426.21 489.66,505.35 C426.70,586.23 428.83,583.50 404.25,614.70 C381.39,643.72 380.68,645.14 380.57,662.00 C380.51,671.97 380.80,674.10 382.73,678.03 C386.00,684.65 391.52,689.51 398.50,691.90 ZM 475.00 893.90 C480.23,894.42 495.52,894.71 509.00,894.53 C538.66,894.14 551.20,892.31 578.99,884.30 C592.86,880.30 632.00,863.49 632.00,861.53 C632.00,861.20 631.17,861.37 630.15,861.92 C626.29,863.99 605.76,869.10 591.88,871.45 C536.68,880.80 478.89,872.87 423.55,848.35 C318.71,801.90 240.42,702.27 222.10,592.00 C218.55,570.65 217.70,560.24 217.68,538.00 C217.64,487.08 229.11,437.63 251.12,393.77 C253.25,389.52 255.00,385.84 255.00,385.58 C255.00,385.33 252.84,387.46 250.20,390.31 C211.19,432.50 188.09,480.45 178.32,539.50 C175.71,555.30 175.71,599.74 178.33,615.50 C185.86,660.82 201.22,700.31 225.79,737.54 C266.06,798.52 325.45,846.75 393.00,873.30 C417.60,882.97 451.85,891.57 475.00,893.90 ZM 162.30 458.50 C162.00,459.60 162.06,460.21 162.43,459.86 C162.81,459.51 165.09,453.51 167.51,446.54 C197.94,358.68 274.46,271.97 359.09,229.47 C436.30,190.68 517.13,184.83 592.00,212.62 C618.71,222.54 650.78,241.05 671.50,258.54 C680.08,265.78 680.51,265.85 676.38,259.33 C656.94,228.70 623.30,195.39 594.00,177.76 C522.42,134.70 440.58,130.99 360.68,167.19 C312.15,189.17 269.22,224.49 233.90,271.50 C195.16,323.05 168.04,391.23 163.48,448.50 C163.13,452.90 162.60,457.40 162.30,458.50 ZM 781.03 667.89 C781.08,669.15 808.82,640.14 815.34,632.00 C852.50,585.63 872.02,526.53 871.99,460.51 C871.97,411.84 861.53,365.25 841.02,322.31 C800.29,237.04 728.30,171.58 642.43,141.72 C626.19,136.08 601.25,129.73 598.25,130.48 C597.01,130.79 596.00,130.58 596.00,130.02 C596.00,129.46 594.54,129.01 592.75,129.02 C590.02,129.03 590.78,129.57 597.50,132.36 C655.19,156.29 715.62,208.81 758.76,272.50 C775.11,296.64 793.64,332.16 802.93,357.17 C827.52,423.41 831.95,491.44 816.47,565.01 C809.74,596.96 797.61,633.40 785.45,658.21 C783.00,663.20 781.01,667.56 781.03,667.89 ZM 736.50 859.13 C741.44,861.39 746.74,861.49 751.89,859.43 C755.68,857.91 773.70,839.24 816.55,792.46 C823.12,785.28 841.78,765.10 858.00,747.60 C874.22,730.10 888.09,714.69 888.80,713.35 C892.13,707.15 891.23,697.10 886.85,691.53 C882.23,685.67 871.99,683.31 864.59,686.40 C861.21,687.81 837.99,712.67 775.28,782.01 C759.45,799.52 746.00,813.87 745.39,813.92 C744.78,813.96 735.11,804.30 723.89,792.44 C712.67,780.56 701.83,770.00 699.79,768.94 C693.29,765.55 684.45,766.77 678.64,771.87 C673.15,776.69 671.21,788.98 674.85,795.81 C677.89,801.51 731.98,857.07 736.50,859.13 Z" fill="rgb(1,10,23)"/>
<path d="M 781.03 667.89 C781.01,667.56 783.00,663.20 785.45,658.21 C797.61,633.40 809.74,596.96 816.47,565.01 C831.95,491.44 827.52,423.41 802.93,357.17 C793.64,332.16 775.11,296.64 758.76,272.50 C715.62,208.81 655.19,156.29 597.50,132.36 C590.78,129.57 590.02,129.03 592.75,129.02 C594.54,129.01 596.00,129.46 596.00,130.02 C596.00,130.58 597.01,130.79 598.25,130.48 C601.25,129.73 626.19,136.08 642.43,141.72 C728.30,171.58 800.29,237.04 841.02,322.31 C861.53,365.25 871.97,411.84 871.99,460.51 C872.02,526.53 852.50,585.63 815.34,632.00 C808.82,640.14 781.08,669.15 781.03,667.89 ZM 736.50 859.13 C731.98,857.07 677.89,801.51 674.85,795.81 C671.21,788.98 673.15,776.69 678.64,771.87 C684.45,766.77 693.29,765.55 699.79,768.94 C701.83,770.00 712.67,780.56 723.89,792.44 C735.11,804.30 744.78,813.96 745.39,813.92 C746.00,813.87 759.45,799.52 775.28,782.01 C837.99,712.67 861.21,687.81 864.59,686.40 C871.99,683.31 882.23,685.67 886.85,691.53 C891.23,697.10 892.13,707.15 888.80,713.35 C888.09,714.69 874.22,730.10 858.00,747.60 C841.78,765.10 823.12,785.28 816.55,792.46 C773.70,839.24 755.68,857.91 751.89,859.43 C746.74,861.49 741.44,861.39 736.50,859.13 Z" fill="rgb(158,235,65)"/>
<path d="M 475.00 893.90 C451.85,891.57 417.60,882.97 393.00,873.30 C325.45,846.75 266.06,798.52 225.79,737.54 C201.22,700.31 185.86,660.82 178.33,615.50 C175.71,599.74 175.71,555.30 178.32,539.50 C188.09,480.45 211.19,432.50 250.20,390.31 C252.84,387.46 255.00,385.33 255.00,385.58 C255.00,385.84 253.25,389.52 251.12,393.77 C229.11,437.63 217.64,487.08 217.68,538.00 C217.70,560.24 218.55,570.65 222.10,592.00 C240.42,702.27 318.71,801.90 423.55,848.35 C478.89,872.87 536.68,880.80 591.88,871.45 C605.76,869.10 626.29,863.99 630.15,861.92 C631.17,861.37 632.00,861.20 632.00,861.53 C632.00,863.49 592.86,880.30 578.99,884.30 C551.20,892.31 538.66,894.14 509.00,894.53 C495.52,894.71 480.23,894.42 475.00,893.90 ZM 162.30 458.50 C162.60,457.40 163.13,452.90 163.48,448.50 C168.04,391.23 195.16,323.05 233.90,271.50 C269.22,224.49 312.15,189.17 360.68,167.19 C440.58,130.99 522.42,134.70 594.00,177.76 C623.30,195.39 656.94,228.70 676.38,259.33 C680.51,265.85 680.08,265.78 671.50,258.54 C650.78,241.05 618.71,222.54 592.00,212.62 C517.13,184.83 436.30,190.68 359.09,229.47 C274.46,271.97 197.94,358.68 167.51,446.54 C165.09,453.51 162.81,459.51 162.43,459.86 C162.06,460.21 162.00,459.60 162.30,458.50 Z" fill="rgb(16,210,222)"/>
<path d="M 398.50 691.90 C391.52,689.51 386.00,684.65 382.73,678.03 C380.80,674.10 380.51,671.97 380.57,662.00 C380.68,645.14 381.39,643.72 404.25,614.70 C428.83,583.50 426.70,586.23 489.66,505.35 C551.28,426.21 560.36,414.43 560.83,413.02 C561.06,412.33 535.89,412.00 483.83,412.00 C396.21,412.01 400.28,412.36 392.25,404.16 C386.44,398.23 384.64,391.83 385.20,379.11 C385.80,365.43 389.93,358.31 400.00,353.60 C404.49,351.50 404.71,351.50 520.00,351.50 C624.48,351.50 635.84,351.66 639.07,353.12 C644.76,355.71 649.57,360.57 651.97,366.15 C653.96,370.79 654.15,372.61 653.81,383.91 C653.46,395.38 653.18,396.98 650.60,401.94 C649.05,404.93 643.19,413.03 637.59,419.94 C631.99,426.85 618.65,443.27 607.95,456.43 C597.25,469.60 582.15,488.27 574.40,497.93 C494.90,596.94 468.02,630.61 468.01,631.25 C468.01,631.66 505.46,632.02 551.25,632.04 C618.18,632.08 635.24,632.35 638.25,633.43 C648.44,637.06 654.09,645.96 654.80,659.48 C655.60,674.62 650.56,684.85 639.53,690.49 L 633.64 693.50 L 519.07 693.73 C405.82,693.95 404.43,693.93 398.50,691.90 Z" fill="rgb(252,252,252)"/>
</g>
</svg>