<?xml version="1.0" standalone="no"?>
<!DOCTYPE svg PUBLIC "-//W3C//DTD SVG 20010904//EN"
 "http://www.w3.org/TR/2001/REC-SVG-20010904/DTD/svg10.dtd">
<svg version="1.0" xmlns="http://www.w3.org/2000/svg"
 width="1536.000000pt" height="1024.000000pt" viewBox="0 0 1536.000000 1024.000000"
 preserveAspectRatio="xMidYMid meet">
  <defs>
    <linearGradient id="myGradient" x1="0%" y1="0%" x2="100%" y2="100%">
      <stop offset="0%" stop-color="#667eea" />
      <stop offset="100%" stop-color="#764ba2" />
    </linearGradient>
  </defs>

<g transform="translate(0.000000,1024.000000) scale(0.100000,-0.100000)"
fill="url(#myGradient)" stroke="none">
<path d="M0 5120 l0 -5120 1376 0 1376 0 -6 27 c-3 16 -11 71 -16 123 -6 52
-22 189 -35 305 -13 116 -35 309 -49 430 -139 1211 -191 1639 -330 2730 -12
99 -22 181 -21 183 5 6 878 109 1930 227 1004 112 1853 210 1907 219 24 5 28
2 33 -27 11 -65 195 -1248 363 -2332 l57 -370 -2 -757 -2 -758 4390 0 4389 0
0 5120 0 5120 -7680 0 -7680 0 0 -5120z m1850 3639 c0 -242 8 -293 50 -334 66
-63 194 -49 240 28 18 29 20 52 20 280 l0 247 70 0 70 0 0 -257 c-1 -277 -5
-303 -54 -367 -14 -19 -52 -47 -83 -63 -51 -25 -69 -28 -153 -28 -109 0 -162
19 -217 75 -66 68 -68 77 -71 373 l-3 267 66 0 65 0 0 -221z m1290 -129 l0
-350 -67 0 -68 0 2 347 c2 192 3 349 3 351 0 1 29 2 65 2 l65 0 0 -350z m1730
0 l0 -350 -71 0 -72 0 6 37 6 36 -32 -30 c-46 -44 -69 -53 -129 -53 -138 1
-219 98 -222 264 -1 107 21 171 78 224 42 38 124 68 158 58 7 -3 25 -7 40 -10
15 -4 43 -20 63 -37 l35 -31 0 121 0 121 70 0 70 0 0 -350z m-1273 158 c87
-40 136 -130 135 -248 -1 -172 -103 -278 -264 -273 -96 2 -177 53 -220 137
-23 45 -34 141 -24 209 24 158 216 248 373 175z m563 5 c47 -19 70 -41 91 -88
16 -34 19 -67 19 -232 l0 -193 -65 0 c-62 0 -65 1 -65 25 l0 24 -50 -31 c-98
-61 -226 -34 -270 57 -26 53 -25 88 1 142 31 65 77 84 211 91 l108 5 0 32 c0
51 -28 77 -88 83 -47 4 -54 2 -82 -27 -28 -27 -38 -31 -86 -31 -48 0 -54 2
-54 21 0 55 68 119 146 138 47 11 136 4 184 -16z m1378 -5 c87 -41 132 -124
131 -243 0 -132 -39 -204 -135 -251 -67 -33 -154 -36 -222 -9 -56 23 -125 101
-142 159 -20 74 -9 194 24 250 65 111 218 152 344 94z m1127 -1 c45 -25 85
-79 85 -113 0 -22 -4 -24 -55 -24 -47 0 -57 3 -71 25 -9 14 -33 29 -55 35 -74
20 -147 -37 -103 -81 11 -10 64 -30 119 -44 115 -30 159 -59 176 -113 24 -83
-29 -169 -123 -197 -134 -39 -266 3 -317 102 -23 45 -16 53 49 53 49 0 61 -3
70 -20 29 -53 145 -66 182 -20 10 12 18 25 18 29 0 23 -35 43 -110 62 -103 27
-151 50 -180 86 -31 40 -25 140 10 179 70 74 210 92 305 41z m1085 7 c47 -20
70 -42 91 -89 16 -34 19 -67 19 -232 l0 -193 -65 0 c-63 0 -65 1 -65 26 l0 26
-30 -25 c-88 -75 -246 -47 -286 49 -33 79 -6 163 66 203 36 20 62 25 147 29
l103 5 0 38 c0 55 -38 83 -104 76 -38 -3 -55 -10 -71 -31 -18 -23 -28 -26 -78
-26 -60 0 -63 3 -46 47 39 103 191 149 319 97z m-4952 -3 c86 -45 125 -124
124 -257 0 -165 -82 -264 -217 -264 -63 0 -86 9 -132 53 l-32 30 0 -134 1
-134 -61 0 c-34 0 -61 3 -61 8 0 4 0 165 0 357 l0 350 63 0 63 0 -4 -37 c-3
-38 -3 -38 15 -16 53 63 164 83 241 44z m3272 -40 l0 -59 -37 4 c-51 7 -103
-21 -125 -66 -15 -29 -18 -63 -18 -195 l0 -160 -65 3 -65 4 0 259 0 259 65 0
65 0 0 -37 1 -38 16 27 c23 36 68 57 121 58 l42 0 0 -59z m1149 39 c22 -11 50
-36 62 -57 23 -36 24 -48 27 -248 l3 -210 -65 3 -65 4 -3 185 -3 185 -28 24
c-40 34 -97 33 -138 -4 l-32 -28 -1 -182 -1 -182 -67 0 -68 0 0 260 0 260 65
0 65 0 0 -32 c1 -28 2 -31 13 -17 45 59 161 78 236 39z m1120 1 c91 -47 137
-146 129 -281 -9 -149 -92 -242 -216 -241 -68 0 -110 17 -141 57 l-21 27 0
-137 0 -136 -65 0 -65 0 0 360 0 360 65 0 65 0 0 -36 0 -37 20 25 c45 58 155
76 229 39z m-2034 -816 c30 -30 31 -54 4 -89 -24 -30 -63 -34 -97 -10 -16 11
-22 25 -22 54 0 67 68 93 115 45z m835 -110 l0 -65 51 0 50 0 -3 -47 -3 -48
-47 -3 -48 -3 0 -141 c0 -160 7 -178 67 -178 l33 0 0 -50 0 -50 -62 0 c-78 0
-127 23 -150 70 -15 29 -18 63 -18 193 l0 157 -35 0 -35 0 0 50 0 50 35 0 35
0 0 65 0 65 65 0 65 0 0 -65z m2290 0 l0 -65 50 0 50 0 0 -50 0 -50 -50 0 -50
0 0 -140 c0 -127 2 -142 20 -160 11 -11 33 -20 50 -20 29 0 30 -1 30 -50 l0
-50 -60 0 c-78 0 -124 19 -147 62 -15 27 -18 62 -21 196 l-4 162 -34 0 -34 0
0 50 0 50 35 0 35 0 0 65 0 65 65 0 65 0 0 -65z m-6843 -83 c54 -28 108 -92
123 -147 7 -24 11 -79 9 -123 -3 -66 -9 -86 -34 -128 -19 -30 -49 -60 -79 -79
-45 -27 -57 -30 -136 -30 -79 0 -91 3 -136 30 -30 19 -60 49 -79 79 -25 42
-31 62 -34 128 -2 44 2 99 9 123 21 74 88 139 170 166 42 14 142 3 187 -19z
m1073 -32 l0 -60 -40 0 c-23 0 -55 -7 -71 -16 -50 -25 -59 -64 -59 -239 l0
-155 -65 0 -65 0 0 260 0 260 65 0 65 0 0 -42 1 -43 15 28 c17 32 83 66 127
67 26 0 27 -1 27 -60z m583 48 c22 -7 57 -28 78 -48 49 -47 59 -99 59 -305 l0
-165 -65 0 -65 0 0 31 0 31 -30 -25 c-41 -35 -93 -50 -157 -45 -118 10 -182
114 -135 220 29 67 85 91 220 96 l102 4 0 29 c0 39 -37 78 -82 86 -45 7 -95
-12 -103 -38 -5 -16 -16 -19 -71 -19 l-64 0 6 28 c11 45 42 79 96 106 59 29
142 35 211 14z m631 -25 c119 -83 142 -317 43 -430 -78 -89 -223 -97 -286 -17
-10 13 -20 24 -22 24 -2 0 -4 -59 -4 -131 l0 -131 -63 -1 -63 -1 0 355 0 354
61 3 60 3 0 -37 0 -36 32 31 c41 40 78 51 147 46 39 -3 66 -12 95 -32z m544
21 c90 -37 142 -131 142 -254 0 -123 -52 -217 -142 -254 -70 -30 -151 -14
-203 38 l-24 25 -3 -132 -3 -132 -62 0 -63 0 0 358 0 357 65 0 65 0 0 -36 0
-35 23 26 c43 50 137 68 205 39z m536 4 c62 -19 130 -91 150 -157 62 -212 -67
-389 -269 -368 -120 12 -192 83 -216 212 -19 101 23 226 92 277 60 45 162 60
243 36z m836 -10 c32 -16 52 -36 70 -68 24 -43 25 -54 28 -242 l4 -198 -66 0
-66 0 -1 163 c0 98 -5 176 -12 197 -19 54 -82 75 -142 48 -48 -22 -55 -51 -55
-238 l0 -170 -65 0 -65 0 0 260 0 260 65 0 65 0 0 -32 0 -32 29 28 c52 50 139
60 211 24z m867 5 c20 -9 43 -29 52 -45 l18 -28 29 31 c82 88 228 76 285 -24
23 -40 24 -51 27 -244 l4 -203 -66 0 -66 0 0 169 c0 174 -8 224 -40 241 -35
19 -78 11 -112 -19 l-33 -29 -3 -181 -4 -181 -58 0 -59 0 -3 191 c-3 187 -4
191 -27 210 -42 34 -119 19 -140 -28 -7 -14 -11 -92 -11 -198 l0 -175 -65 0
-65 0 0 260 0 260 66 0 67 0 -6 -30 c-7 -35 3 -39 21 -9 29 46 125 63 189 32z
m869 -18 c64 -39 104 -114 107 -201 l2 -59 -181 -3 -182 -2 8 -35 c12 -54 36
-83 80 -96 48 -15 113 1 133 31 10 16 23 20 74 20 35 0 63 -3 63 -7 -1 -28
-52 -92 -94 -118 -45 -27 -57 -30 -136 -30 -79 0 -91 3 -136 30 -30 19 -60 49
-79 80 -28 46 -30 54 -30 154 0 90 3 112 22 148 44 82 125 125 229 121 58 -3
80 -9 120 -33z m562 10 c72 -43 92 -117 92 -352 l0 -153 -64 0 -64 0 -4 178
c-4 188 -9 210 -55 231 -48 22 -107 8 -133 -32 -11 -16 -16 -67 -18 -199 l-4
-178 -64 0 -64 0 0 260 0 260 65 0 65 0 0 -37 0 -37 16 23 c9 13 35 32 58 42
48 23 129 20 174 -6z m827 6 c46 -21 79 -54 94 -94 15 -40 7 -47 -51 -47 -43
0 -54 4 -78 30 -23 25 -36 30 -74 30 -33 0 -52 -6 -66 -20 -44 -44 -16 -69
119 -105 103 -28 136 -46 157 -86 20 -40 18 -106 -6 -143 -42 -70 -180 -106
-290 -76 -56 15 -130 85 -130 124 0 25 2 26 54 26 47 0 59 -4 84 -30 26 -26
38 -30 82 -30 41 0 56 5 75 24 43 43 11 73 -98 96 -133 27 -187 74 -187 161 0
97 80 159 205 159 47 0 83 -7 110 -19z m-8036 -173 c30 -101 57 -186 60 -190
4 -4 31 74 60 175 30 100 57 186 61 190 4 4 36 7 72 5 l64 -3 -66 -185 c-37
-102 -84 -233 -104 -292 -64 -182 -119 -238 -234 -238 l-52 0 0 49 0 48 40 6
c50 6 66 19 80 62 10 31 3 55 -79 286 -50 138 -91 256 -91 260 0 5 30 9 68 9
l68 0 53 -182z m1051 1 l0 -181 29 -29 c32 -32 71 -38 116 -17 48 22 55 51 55
238 l0 170 65 0 65 0 0 -260 0 -261 -62 3 c-61 3 -63 4 -63 31 1 29 -9 36 -18
13 -3 -7 -25 -23 -49 -35 -93 -45 -204 -14 -245 69 -22 41 -23 57 -23 242 l0
198 65 0 65 0 0 -181z m3392 -79 l3 -260 -67 0 -68 0 0 260 0 260 65 0 64 0 3
-260z m3924 -167 c-3 -10 -12 -47 -20 -83 -7 -36 -20 -89 -27 -117 l-12 -53
-49 0 c-29 0 -48 4 -48 11 0 14 29 205 36 237 4 20 10 22 65 22 53 0 60 -2 55
-17z m-7376 -778 l0 -265 -30 0 c-26 0 -30 4 -30 26 l0 26 -30 -26 c-77 -64
-196 -31 -241 68 -24 54 -25 148 0 201 46 103 161 135 241 69 l30 -26 0 96 0
96 30 0 30 0 0 -265z m602 20 c114 -311 108 -285 65 -285 -28 0 -37 5 -43 23
-3 12 -15 46 -26 75 l-19 52 -103 0 -102 0 -24 -75 -24 -75 -37 0 -38 0 40
113 c22 61 56 155 76 207 19 52 44 121 55 153 20 57 21 58 56 55 l37 -3 87
-240z m238 -20 l0 -265 -35 0 -35 0 0 258 c0 142 3 262 7 265 3 4 19 7 35 7
l28 0 0 -265z m2460 170 l0 -94 26 24 c35 33 88 42 138 24 76 -27 95 -80 96
-271 l0 -118 -34 0 -34 0 -4 144 c-2 122 -6 147 -21 164 -25 27 -62 35 -103
22 -54 -18 -64 -49 -64 -200 l0 -130 -35 0 -35 0 0 265 0 265 35 0 35 0 0 -95z
m1605 61 c0 -52 -63 -62 -73 -12 -7 33 6 47 40 44 29 -3 33 -7 33 -32z m-3695
-48 l0 -53 37 0 c34 0 38 -3 41 -27 3 -27 1 -28 -37 -28 l-41 0 0 -128 c0
-139 5 -152 52 -152 24 0 28 -4 28 -30 0 -29 -2 -30 -44 -30 -33 0 -52 6 -73
24 -28 24 -28 24 -31 170 l-3 146 -30 0 c-27 0 -30 3 -27 28 2 22 8 27 31 27
26 -1 27 2 27 45 0 55 4 60 42 60 27 0 28 -2 28 -52z m1860 3 l0 -50 38 -3
c32 -3 37 -7 40 -30 3 -27 1 -28 -37 -28 l-41 0 0 -129 c0 -137 3 -146 50
-153 19 -2 26 -10 28 -30 3 -27 2 -28 -42 -28 -33 0 -52 6 -73 24 -28 24 -28
24 -31 170 l-3 146 -30 0 c-27 0 -30 3 -27 28 2 22 8 27 31 27 26 -1 27 1 27
52 l0 53 35 0 35 0 0 -49z m2420 0 l0 -50 38 -3 c32 -3 37 -7 40 -30 3 -27 1
-28 -37 -28 l-41 0 0 -121 c0 -136 7 -159 50 -159 27 0 30 -3 30 -30 0 -29 -2
-30 -44 -30 -33 0 -52 6 -73 24 -28 24 -28 24 -31 170 l-3 146 -30 0 c-27 0
-30 3 -27 28 2 22 8 27 31 27 26 -1 27 2 27 45 0 55 4 60 42 60 27 0 28 -2 28
-49z m-6393 -70 c65 -30 73 -55 73 -231 l0 -150 -30 0 c-26 0 -30 4 -30 27 l0
26 -22 -20 c-35 -31 -63 -43 -103 -43 -74 0 -125 47 -125 116 0 82 61 124 180
124 76 0 79 2 59 59 -21 60 -91 70 -141 21 -19 -20 -40 -30 -59 -30 -37 0 -38
18 -2 61 50 59 124 74 200 40z m217 -8 c0 -13 1 -23 2 -23 2 0 20 11 40 25 45
31 106 33 151 5 55 -33 63 -63 66 -230 l3 -150 -32 0 -32 0 -4 138 c-2 109 -7
143 -20 164 -34 52 -124 44 -153 -13 -11 -20 -15 -64 -15 -159 l0 -130 -35 0
-35 0 0 201 0 200 33 -3 c26 -2 32 -7 31 -25z m2118 -123 c3 -137 5 -151 24
-171 24 -23 78 -28 113 -10 37 20 45 51 49 194 l4 137 29 0 29 0 0 -200 0
-200 -30 0 c-26 0 -30 4 -30 27 l0 26 -22 -21 c-68 -62 -174 -47 -216 32 -12
23 -17 66 -20 168 -2 76 -2 145 2 153 3 9 18 15 35 15 l30 0 3 -150z m408 123
l0 -26 25 23 c17 16 37 24 67 24 41 1 43 0 43 -28 0 -26 -3 -29 -39 -31 -29
-1 -46 -10 -63 -29 -22 -26 -23 -35 -23 -167 l0 -139 -35 0 -35 0 0 200 0 200
30 0 c26 0 30 -4 30 -27z m250 -5 l0 -32 29 28 c62 59 173 41 211 -35 17 -33
20 -59 20 -184 l0 -145 -32 0 -33 0 0 138 c-1 84 -5 145 -13 158 -17 31 -66
49 -104 38 -62 -18 -77 -65 -77 -241 l-1 -93 -30 0 -30 0 0 200 0 200 30 0
c27 0 30 -3 30 -32z m574 7 c26 -17 62 -72 54 -81 -3 -2 -19 -7 -36 -10 -25
-5 -32 -3 -32 9 0 24 -40 47 -80 47 -69 0 -105 -53 -57 -84 12 -8 44 -20 70
-26 112 -25 156 -66 143 -135 -8 -42 -63 -92 -111 -101 -85 -16 -155 13 -188
77 l-17 34 30 3 c24 3 37 -4 59 -27 24 -26 37 -31 73 -31 48 0 88 27 88 59 0
27 -19 38 -91 57 -115 29 -139 51 -139 121 0 43 21 73 65 97 38 21 131 16 169
-9z m1236 -5 c40 -28 69 -91 70 -147 l0 -43 -140 0 c-156 0 -155 0 -124 -66
19 -39 59 -64 101 -64 31 0 93 34 93 50 0 5 16 10 35 10 40 0 41 -2 19 -39
-43 -72 -147 -101 -228 -61 -68 33 -101 92 -100 185 0 45 6 81 16 100 20 37
65 80 98 94 41 17 123 8 160 -19z m205 -2 c-1 -27 0 -27 20 -9 59 54 138 53
185 -4 12 -14 15 -14 34 4 48 45 127 54 171 19 46 -36 55 -73 55 -233 l0 -145
-35 0 -35 0 0 145 c0 142 -1 147 -25 170 -33 33 -70 32 -106 -4 l-29 -29 0
-141 0 -141 -35 0 -35 0 0 145 c0 143 0 146 -26 172 -20 20 -32 24 -57 19 -18
-3 -42 -17 -54 -32 -22 -23 -23 -34 -23 -165 l0 -139 -35 0 -35 0 0 201 0 200
33 -3 c28 -3 32 -7 32 -30z m795 -168 l0 -200 -30 0 -30 0 0 200 0 200 30 0
30 0 0 -200z m158 169 l3 -27 23 23 c50 50 157 40 200 -18 19 -26 21 -45 24
-188 l3 -159 -29 0 -30 0 -4 138 c-2 109 -7 143 -20 164 -34 52 -124 44 -153
-13 -11 -20 -15 -64 -15 -159 l0 -130 -35 0 -35 0 0 193 c0 107 3 197 7 201 4
4 19 6 33 4 19 -2 26 -10 28 -29z m818 12 c119 -54 141 -237 40 -338 -118
-118 -299 -26 -298 150 0 72 13 111 50 151 54 57 133 71 208 37z m-6156 -926
l0 -265 -35 0 -35 0 0 265 0 265 35 0 35 0 0 -265z m1220 0 l0 -265 -30 0
c-26 0 -30 4 -30 27 l0 26 -24 -22 c-30 -28 -88 -44 -129 -36 -82 18 -137 97
-137 200 0 105 56 184 140 200 43 8 114 -17 135 -48 14 -20 15 -12 15 81 l0
102 30 0 30 0 0 -265z m2410 0 l0 -265 -30 0 c-27 0 -30 3 -30 33 -1 27 -3 30
-13 16 -51 -66 -171 -68 -228 -3 -71 81 -72 218 -2 295 60 66 151 76 207 24
15 -14 28 -25 30 -25 2 0 4 42 4 93 1 50 1 93 2 95 0 1 14 2 30 2 l30 0 0
-265z m2298 175 l-3 -50 38 0 c33 0 37 -3 37 -25 0 -22 -4 -25 -35 -25 l-35 0
0 -128 c0 -136 5 -152 47 -152 19 0 23 -5 23 -30 0 -28 -2 -30 -39 -30 -28 0
-49 7 -68 24 -28 24 -28 24 -31 170 l-3 146 -30 0 c-24 0 -29 4 -29 25 0 21 5
25 30 25 29 0 30 1 30 50 l0 50 36 0 36 0 -4 -50z m-6541 -60 c40 -18 83 -68
83 -97 0 -8 -14 -13 -35 -13 -19 0 -35 5 -35 10 0 6 -11 22 -25 35 -47 48
-131 24 -159 -45 -53 -133 35 -261 143 -206 15 8 32 25 38 39 9 19 17 23 42
19 37 -5 38 -13 9 -60 -24 -39 -86 -72 -138 -72 -48 0 -113 32 -137 66 -77
112 -47 276 61 325 52 24 100 24 153 -1z m354 10 c19 -5 48 -24 65 -41 l29
-30 3 -160 3 -159 -30 0 c-27 0 -31 4 -31 26 l0 26 -30 -25 c-45 -38 -101 -44
-158 -15 -59 29 -79 75 -59 135 20 60 54 77 158 81 80 4 89 6 89 23 0 28 -26
75 -45 83 -41 15 -97 0 -121 -32 -12 -16 -74 -25 -74 -10 0 28 36 72 73 89 48
21 76 23 128 9z m558 0 c66 -18 105 -73 117 -158 l7 -52 -142 0 c-156 0 -154
1 -126 -66 27 -65 132 -82 174 -28 13 16 29 24 51 24 28 0 31 -2 25 -22 -18
-59 -103 -105 -176 -95 -89 12 -148 81 -157 183 -8 93 29 168 100 203 48 23
76 26 127 11z m426 -4 c64 -27 75 -60 75 -233 l0 -153 -30 0 -30 0 0 124 c0
140 -10 180 -51 201 -35 19 -43 19 -84 0 -47 -23 -55 -50 -55 -195 l0 -130
-35 0 -35 0 0 195 0 195 35 0 c31 0 35 -3 35 -27 0 -24 2 -25 13 -10 33 44
102 58 162 33z m812 -5 c65 -30 73 -55 73 -231 l0 -150 -30 0 c-26 0 -30 4
-30 27 l0 26 -22 -21 c-88 -82 -228 -33 -228 81 0 42 31 84 76 103 19 8 66 14
105 14 l72 0 -6 38 c-4 20 -16 45 -28 55 -37 30 -107 18 -136 -23 -13 -19 -64
-21 -70 -3 -2 6 10 27 27 47 50 56 123 70 197 37z m357 -16 c0 -28 -3 -30 -44
-36 -73 -10 -80 -27 -80 -190 l0 -139 -35 0 -35 0 0 195 0 195 30 0 c23 0 30
-4 30 -20 0 -18 2 -18 37 6 24 16 48 24 67 22 26 -3 30 -7 30 -33z m561 0 c0
-20 -5 -30 -15 -31 -8 -1 -25 -2 -38 -2 -13 -1 -34 -13 -47 -27 -24 -23 -25
-29 -25 -165 l0 -140 -35 0 -35 0 0 195 0 195 36 0 c31 0 36 -3 31 -20 -3 -11
-1 -20 4 -20 5 0 9 5 9 10 0 15 60 40 90 37 21 -2 25 -7 25 -32z m281 16 c53
-24 80 -60 93 -122 18 -85 28 -79 -129 -79 l-140 0 0 -29 c0 -68 84 -116 153
-87 21 8 40 22 43 31 6 15 74 23 74 8 0 -25 -46 -77 -83 -93 -51 -24 -96 -25
-144 -5 -76 32 -112 93 -113 188 0 95 33 155 105 188 51 23 89 23 141 0z m377
5 c18 -7 45 -28 60 -45 27 -32 27 -34 27 -187 l0 -154 -30 0 c-26 0 -30 4 -30
26 l0 26 -30 -25 c-40 -34 -96 -42 -148 -22 -51 21 -72 52 -72 107 0 83 52
118 175 118 l78 0 -6 38 c-8 47 -38 72 -89 72 -30 0 -45 -6 -64 -27 -24 -26
-84 -42 -84 -22 0 28 34 69 72 88 50 24 95 27 141 7z m1407 -9 c54 -28 90 -90
90 -154 l0 -43 -140 0 -140 0 6 -27 c16 -66 52 -96 115 -96 30 0 47 7 68 27
18 17 38 26 60 26 l33 0 -19 -32 c-61 -104 -213 -112 -286 -16 -65 85 -52 231
27 295 62 49 120 55 186 20z m744 3 c56 -27 88 -78 94 -146 l4 -54 -141 0
-141 0 6 -27 c18 -74 55 -99 140 -94 12 1 32 12 45 26 16 16 35 25 57 25 37 0
38 -2 16 -38 -22 -37 -54 -60 -106 -73 -98 -26 -196 39 -218 146 -35 170 104
304 244 235z m433 -5 c43 -29 53 -71 53 -230 l0 -145 -35 0 -35 0 0 144 c0
127 -2 147 -19 167 -15 19 -29 24 -66 24 -39 0 -51 -5 -71 -28 -23 -27 -24
-35 -24 -168 l0 -139 -35 0 -35 0 0 195 0 195 35 0 c28 0 35 -4 35 -20 0 -18
2 -18 38 6 31 22 44 25 86 20 27 -3 60 -13 73 -21z m577 11 c34 -14 76 -59 76
-82 0 -24 -57 -16 -84 11 -46 46 -145 23 -134 -31 4 -22 35 -39 112 -59 72
-20 116 -59 116 -105 0 -123 -180 -172 -277 -75 -43 43 -43 65 -2 65 21 0 37
-8 50 -25 39 -48 142 -41 155 11 9 36 -10 51 -100 78 -46 14 -91 35 -102 47
-26 29 -26 99 1 129 42 48 124 63 189 36z m-2509 -13 c4 -10 24 -67 45 -128
68 -194 54 -192 113 -12 l51 157 33 0 c18 0 33 -4 33 -9 0 -5 -12 -40 -26 -77
-14 -38 -50 -135 -79 -215 -29 -81 -61 -161 -70 -179 -18 -35 -66 -60 -115
-60 -27 0 -30 3 -30 30 0 26 4 30 26 30 40 0 62 17 75 58 10 35 6 49 -60 223
-39 102 -71 189 -71 192 0 4 15 7 34 7 23 0 36 -6 41 -17z m1001 -142 c30 -85
56 -148 58 -140 3 8 27 77 53 154 l49 140 36 3 36 3 -72 -193 -72 -193 -35 -3
-36 -3 -68 183 c-37 101 -70 189 -73 196 -3 10 5 13 33 10 l38 -3 53 -154z
m-2586 -26 l0 -35 -120 0 -120 0 0 35 0 35 120 0 120 0 0 -35z m875 -820 c588
-11 586 -10 749 -90 226 -110 359 -330 372 -613 3 -59 6 -133 8 -164 2 -32 0
-58 -5 -58 -5 0 -9 38 -9 85 0 126 -18 269 -45 355 -73 231 -262 393 -515 443
-121 24 -323 27 -1925 28 -1583 2 -1704 -1 -1859 -41 -336 -86 -506 -347 -506
-777 0 -51 -3 -93 -7 -93 -11 0 -5 219 8 310 17 124 60 242 117 320 44 60 115
130 167 165 153 101 317 131 740 134 126 1 232 5 235 8 5 5 2060 -4 2475 -12z
m-2566 -232 c22 -23 29 -41 34 -91 12 -108 58 -176 153 -223 l49 -24 1025 0
1025 0 50 26 c98 52 145 122 145 216 0 41 6 68 21 92 l20 33 257 -5 c280 -5
314 -11 432 -68 116 -58 226 -191 254 -309 l6 -25 -11 25 c-58 128 -76 157
-132 211 -34 33 -88 73 -121 89 -109 53 -160 61 -427 67 l-247 5 -17 -26 c-10
-15 -20 -54 -22 -89 -8 -109 -51 -172 -150 -223 l-58 -29 -810 -5 c-445 -3
-800 -9 -787 -13 12 -5 19 -13 16 -19 -4 -6 -10 -6 -17 1 -17 17 -27 13 -27
-9 0 -11 -4 -20 -9 -20 -6 0 -6 12 -1 29 l8 28 -72 0 c-39 0 -58 -1 -43 -4 23
-4 26 -7 16 -19 -18 -22 8 -47 43 -42 15 3 28 1 28 -3 0 -6 47 -6 71 0 3 0 11
13 18 27 9 21 14 24 26 14 8 -6 19 -9 24 -5 7 3 8 0 5 -9 -3 -9 -1 -16 5 -16
7 0 14 7 17 15 4 9 16 21 28 27 20 10 20 10 -2 -14 -21 -23 -22 -58 -2 -58 4
0 10 -7 13 -14 4 -10 1 -13 -9 -9 -7 3 -14 9 -14 14 0 6 -8 5 -19 -1 -31 -16
-35 -12 -10 11 l24 20 -23 -6 c-12 -4 -22 -3 -21 2 4 24 -3 25 -18 3 -10 -14
-17 -28 -16 -32 4 -12 -25 -30 -32 -18 -3 5 -2 10 4 10 6 0 8 7 5 15 -5 11
-10 12 -24 2 -14 -8 -16 -14 -7 -20 8 -6 8 -7 -3 -4 -8 2 -14 13 -12 23 3 15
-3 13 -26 -11 -41 -41 -55 -51 -72 -53 -8 0 -27 -3 -42 -5 -19 -3 -25 0 -21 9
3 8 -2 14 -11 14 -9 0 -16 -7 -16 -16 0 -8 -5 -12 -10 -9 -8 5 -7 11 1 21 9
11 8 18 -5 32 -9 10 -13 22 -9 25 3 4 1 7 -6 7 -8 0 -11 -7 -7 -15 3 -8 0 -15
-6 -15 -7 0 -3 -6 7 -14 19 -13 18 -14 -5 -9 -18 3 -32 -2 -44 -16 -14 -16
-16 -21 -5 -21 11 0 11 -2 -1 -10 -13 -8 -12 -10 3 -10 21 0 22 -13 2 -30 -8
-7 -15 -19 -15 -27 0 -11 -3 -13 -12 -5 -7 6 -17 10 -23 10 -5 0 -11 5 -13 11
-5 14 11 14 25 0 8 -8 13 -8 17 0 4 6 2 11 -5 11 -6 0 -18 8 -25 18 -13 16
-13 16 -14 -3 0 -12 -3 -16 -8 -9 -4 6 -17 14 -28 18 -25 8 -38 43 -21 53 7 3
9 3 5 -1 -3 -4 2 -16 13 -27 23 -23 33 -25 25 -4 -3 8 -3 15 0 15 3 0 12 -7
20 -15 9 -8 18 -15 22 -15 14 0 31 53 23 68 -7 12 -10 8 -16 -16 -3 -18 -11
-32 -16 -32 -6 0 -7 9 -4 21 7 20 6 20 -20 3 -25 -17 -28 -17 -37 -1 -12 23
-23 21 -36 -5 -10 -22 -11 -22 -12 7 -2 29 -2 29 -9 5 -6 -19 -3 -27 11 -34
19 -10 25 -26 8 -26 -5 0 -10 -5 -10 -10 0 -6 9 -5 21 2 17 10 23 10 26 1 3
-7 11 -13 19 -13 19 0 18 -16 -1 -24 -9 -3 -15 0 -15 9 0 17 -9 19 -30 5 -10
-6 -11 -10 -2 -10 6 0 12 -7 12 -15 0 -12 4 -14 19 -5 12 6 22 6 25 1 4 -5 1
-11 -6 -13 -7 -3 -12 -20 -11 -41 1 -20 -1 -37 -3 -37 -2 0 -12 16 -22 36
l-18 35 -27 -21 c-15 -12 -27 -17 -27 -11 0 6 5 11 11 11 5 0 7 5 3 12 -4 7
-3 8 4 4 7 -4 12 -1 12 8 0 10 6 13 15 10 21 -8 19 2 -6 30 -17 19 -24 22 -34
13 -7 -7 -11 -15 -9 -19 2 -3 -10 -11 -27 -17 -27 -9 -30 -9 -19 4 7 8 17 12
24 8 6 -3 8 -2 3 2 -10 11 33 56 46 48 6 -3 7 -1 3 6 -6 9 -11 9 -21 1 -8 -6
-21 -7 -35 -2 -20 8 -21 9 -6 15 10 4 23 4 28 0 7 -3 8 -1 4 5 -10 16 -31 15
-46 -2 -6 -8 -18 -12 -26 -9 -8 3 -14 -1 -14 -11 0 -9 -8 -16 -20 -16 -11 0
-20 -4 -20 -10 0 -17 29 -11 41 8 8 12 20 17 35 14 29 -5 31 -22 5 -44 -13
-11 -18 -24 -14 -39 l6 -22 -22 22 c-13 13 -25 20 -28 18 -6 -7 40 -53 50 -50
12 5 8 -15 -5 -20 -8 -3 -6 -6 5 -6 9 -1 17 4 17 10 0 7 7 8 18 4 9 -4 22 -8
29 -8 6 0 8 -7 5 -16 -4 -10 -7 -11 -10 -3 -3 10 -7 10 -18 1 -12 -10 -13 -8
-7 7 6 17 5 17 -11 5 -13 -11 -14 -16 -4 -22 19 -12 52 -11 65 2 12 12 33 4
33 -13 0 -5 -6 -8 -14 -5 -8 3 -17 3 -20 -1 -17 -16 -59 -12 -76 8 -11 12 -32
23 -47 24 -15 1 -38 6 -50 10 -14 5 -23 3 -23 -3 0 -11 13 -15 40 -11 12 1 13
-1 3 -11 -19 -19 -16 -29 8 -29 15 0 19 5 15 15 -3 9 0 15 8 15 12 0 32 -29
24 -35 -10 -7 -292 -37 -312 -33 -14 3 -24 2 -21 -2 2 -3 -105 -20 -238 -36
-220 -28 -243 -29 -256 -15 -12 14 -13 14 -8 -1 5 -15 0 -18 -27 -18 -49 0
-58 -17 -47 -86 5 -33 8 -82 7 -111 0 -28 2 -49 5 -47 4 2 9 -9 11 -26 3 -20
0 -31 -11 -35 -14 -6 -13 -8 3 -21 15 -11 16 -14 4 -14 -17 0 -51 -34 -43 -42
3 -3 -1 -11 -10 -18 -23 -19 -18 -30 15 -30 18 0 33 6 36 15 8 20 24 19 24 -1
0 -9 -5 -12 -12 -8 -8 5 -9 2 -5 -10 4 -9 3 -15 -2 -11 -6 3 -28 1 -51 -4 -35
-8 -39 -7 -29 5 9 11 8 14 -7 14 -17 0 -17 1 2 15 17 13 17 14 2 15 -18 0 -26
20 -9 20 5 0 8 7 7 16 0 9 4 19 10 21 7 2 9 -8 6 -28 -3 -22 -1 -30 7 -25 6 4
9 12 6 17 -8 12 20 51 30 41 8 -6 5 3 -12 45 -5 12 -2 15 10 10 11 -4 14 -2
10 9 -6 16 -19 18 -28 4 -4 -6 -11 -8 -16 -5 -5 4 -9 1 -9 -6 0 -8 -5 -7 -17
2 -14 12 -16 12 -11 -2 4 -9 -2 -20 -14 -28 -17 -11 -19 -10 -14 7 4 12 0 24
-9 32 -14 12 -15 10 -9 -15 5 -22 4 -27 -7 -21 -8 4 -4 -1 9 -10 21 -16 32
-42 12 -29 -6 3 -7 -1 -4 -10 8 -20 17 -12 20 18 3 30 3 29 13 23 4 -3 2 -29
-5 -57 -10 -39 -11 -56 -2 -66 6 -7 9 -16 6 -18 -10 -10 -31 26 -33 56 -3 35
-6 39 -32 44 -10 2 -20 4 -22 4 -2 1 3 9 10 18 10 11 10 14 2 9 -8 -4 -13 -1
-13 9 0 9 5 13 10 10 6 -4 9 -3 8 2 -1 4 2 19 6 31 6 18 14 23 31 20 17 -4 22
-1 18 9 -3 9 -12 11 -22 7 -9 -3 -26 -9 -38 -11 -21 -5 -22 -10 -22 -144 -1
-76 2 -139 7 -139 4 0 13 10 21 22 12 19 11 23 -3 34 -21 15 -13 55 15 72 21
14 24 9 9 -18 -8 -15 -6 -21 7 -29 10 -6 13 -11 7 -11 -5 0 -15 5 -22 12 -21
21 -22 2 -1 -21 l21 -22 -21 -20 c-12 -11 -19 -24 -16 -29 3 -6 -1 -7 -10 -4
-14 6 -15 -13 -14 -165 0 -94 4 -169 9 -166 5 3 11 1 15 -5 3 -5 -1 -10 -9
-10 -14 0 -16 -90 -16 -852 0 -468 -2 -854 -5 -857 -3 -2 -4 686 -3 1530 l3
1534 23 67 c50 148 163 263 301 308 86 27 178 35 434 38 l188 3 28 -28z m8416
-167 c51 -22 58 -58 53 -280 l-3 -188 -28 -24 c-39 -33 -99 -33 -132 1 -25 24
-25 24 -25 234 0 115 3 217 6 226 7 17 56 44 82 45 7 0 28 -6 47 -14z m1543
-22 c21 -24 22 -32 22 -225 0 -251 -7 -269 -98 -269 -20 0 -44 6 -53 13 -35
27 -39 54 -39 255 0 185 1 201 20 225 35 44 109 45 148 1z m-9377 -207 c-8 -8
-11 -7 -11 4 0 20 13 34 18 19 3 -7 -1 -17 -7 -23z m59 26 c0 -15 -15 -28 -33
-31 -16 -3 -17 0 -7 17 10 20 40 30 40 14z m248 -6 c17 -11 15 -34 -3 -34 -11
0 -12 4 -4 13 7 8 7 14 -1 19 -5 3 -10 1 -10 -4 0 -6 -4 -11 -8 -11 -5 0 -9 6
-9 14 0 15 14 16 35 3z m322 3 c0 -5 -5 -10 -11 -10 -5 0 -7 5 -4 10 3 6 8 10
11 10 2 0 4 -4 4 -10z m64 -24 c-6 -15 -24 -23 -24 -11 0 8 24 34 28 30 1 -1
0 -10 -4 -19z m53 18 c-3 -3 -12 -4 -19 -1 -8 3 -5 6 6 6 11 1 17 -2 13 -5z
m-277 -12 c0 -4 -9 -8 -19 -8 -11 0 -17 4 -15 8 3 4 12 8 20 8 8 0 14 -4 14
-8z m660 4 c0 -3 -4 -8 -10 -11 -5 -3 -10 -1 -10 4 0 6 5 11 10 11 6 0 10 -2
10 -4z m-360 -10 c0 -3 -4 -8 -10 -11 -5 -3 -10 -1 -10 4 0 6 5 11 10 11 6 0
10 -2 10 -4z m2127 -33 c-3 -10 -5 -4 -5 12 0 17 2 24 5 18 2 -7 2 -21 0 -30z
m-2313 19 c3 -5 -1 -9 -9 -9 -8 0 -15 4 -15 9 0 4 4 8 9 8 6 0 12 -4 15 -8z
m51 -2 c3 -5 1 -10 -4 -10 -6 0 -11 5 -11 10 0 6 2 10 4 10 3 0 8 -4 11 -10z
m-85 -21 c0 -6 -4 -7 -10 -4 -5 3 -10 11 -10 16 0 6 5 7 10 4 6 -3 10 -11 10
-16z m225 11 c-3 -5 -14 -10 -23 -9 -14 0 -13 2 3 9 27 11 27 11 20 0z m38
-15 c-3 -9 -8 -14 -10 -11 -3 3 -2 9 2 15 9 16 15 13 8 -4z m6789 -93 c8 -117
13 -139 45 -181 35 -46 83 -64 159 -59 48 3 70 10 98 31 56 43 69 78 75 197
l6 105 554 3 c401 1 558 -1 567 -9 10 -8 14 -36 14 -93 0 -103 12 -144 52
-183 41 -40 76 -53 139 -53 57 0 92 15 132 57 36 39 47 80 47 185 0 86 0 88
26 94 15 4 72 4 128 2 76 -4 113 -11 148 -28 62 -29 118 -84 148 -146 l25 -49
3 -999 c1 -642 -1 -1018 -8 -1054 -14 -75 -47 -138 -98 -183 -84 -73 1 -69
-1326 -69 l-1191 0 -50 24 c-65 31 -112 78 -144 146 l-26 55 0 1030 c0 807 3
1039 13 1072 28 93 124 177 218 192 27 4 92 7 144 7 l95 -1 7 -93z m-7307 68
c-3 -5 -12 -10 -18 -10 -7 0 -6 4 3 10 19 12 23 12 15 0z m115 6 c0 -3 -4 -8
-10 -11 -5 -3 -10 -1 -10 4 0 6 5 11 10 11 6 0 10 -2 10 -4z m145 -6 c-3 -5
-12 -10 -18 -10 -7 0 -6 4 3 10 19 12 23 12 15 0z m2352 -82 c-2 -18 -4 -4 -4
32 0 36 2 50 4 33 2 -18 2 -48 0 -65z m-2384 69 c3 -7 -3 -13 -14 -13 -13 0
-15 3 -7 13 6 7 12 13 13 13 2 0 5 -6 8 -13z m-440 -35 c7 -9 6 -11 -7 -6 -9
3 -16 16 -15 28 0 14 2 16 6 6 3 -8 10 -21 16 -28z m297 34 c0 -2 -7 -7 -16
-10 -8 -3 -12 -2 -9 4 6 10 25 14 25 6z m370 0 c0 -2 -7 -6 -15 -10 -8 -3 -15
-1 -15 4 0 6 7 10 15 10 8 0 15 -2 15 -4z m-536 -21 c-6 -16 -24 -21 -24 -7 0
11 11 22 21 22 5 0 6 -7 3 -15z m243 9 c-3 -3 -12 -4 -19 -1 -8 3 -5 6 6 6 11
1 17 -2 13 -5z m-412 -14 c-3 -5 -12 -10 -18 -10 -7 0 -6 4 3 10 19 12 23 12
15 0z m85 -2 c0 -4 -7 -8 -15 -8 -8 0 -15 4 -15 8 0 5 7 9 15 9 8 0 15 -4 15
-9z m41 -12 c-7 -8 -9 -21 -5 -28 5 -10 4 -10 -5 -2 -10 9 -10 17 -1 34 6 12
14 19 17 16 3 -3 0 -12 -6 -20z m73 9 c-4 -8 -11 -15 -16 -15 -6 0 -5 6 2 15
7 8 14 15 16 15 2 0 1 -7 -2 -15z m46 5 c0 -5 -2 -10 -4 -10 -3 0 -8 5 -11 10
-3 6 -1 10 4 10 6 0 11 -4 11 -10z m44 -14 c-3 -9 -10 -16 -15 -16 -6 0 -5 9
1 21 13 24 24 20 14 -5z m46 14 c0 -5 -5 -10 -11 -10 -5 0 -7 5 -4 10 3 6 8
10 11 10 2 0 4 -4 4 -10z m460 0 c0 -5 -2 -10 -4 -10 -3 0 -8 5 -11 10 -3 6
-1 10 4 10 6 0 11 -4 11 -10z m-1000 -10 c0 -5 -4 -10 -10 -10 -5 0 -10 5 -10
10 0 6 5 10 10 10 6 0 10 -4 10 -10z m22 -8 c3 -12 -1 -18 -12 -18 -14 0 -15
4 -6 18 6 10 11 18 12 18 1 0 4 -8 6 -18z m418 -10 c0 -4 -9 -8 -19 -8 -15 0
-17 3 -9 13 10 12 28 9 28 -5z m155 8 c3 -6 -1 -7 -9 -4 -18 7 -21 14 -7 14 6
0 13 -4 16 -10z m-220 -10 c3 -5 1 -10 -4 -10 -6 0 -11 5 -11 10 0 6 2 10 4
10 3 0 8 -4 11 -10z m-277 -13 c5 7 12 6 22 -5 13 -14 12 -15 -4 -9 -14 6 -17
4 -12 -8 4 -11 2 -14 -6 -9 -7 5 -9 2 -6 -8 4 -8 -3 -20 -15 -27 -18 -11 -20
-11 -10 0 10 10 5 15 -28 27 -35 11 -43 11 -50 0 -5 -7 -9 -8 -9 -2 0 17 21
33 37 27 8 -3 19 0 25 8 7 10 8 8 5 -8 -4 -17 -1 -23 13 -23 11 0 22 5 25 10
3 6 2 10 -3 10 -6 0 -13 7 -16 16 -6 14 -4 15 10 4 11 -10 18 -10 22 -3z m116
5 c2 -4 -4 -8 -15 -8 -10 0 -19 4 -19 8 0 4 6 8 14 8 8 0 17 -4 20 -8z m56 -6
c0 -9 -9 -14 -20 -13 -25 2 -26 14 -2 20 9 3 18 5 20 6 1 0 2 -5 2 -13z m30
10 c0 -3 -4 -8 -10 -11 -5 -3 -10 -1 -10 4 0 6 5 11 10 11 6 0 10 -2 10 -4z
m273 -3 c-7 -2 -19 -2 -25 0 -7 3 -2 5 12 5 14 0 19 -2 13 -5z m257 -3 c0 -5
-4 -10 -10 -10 -5 0 -10 5 -10 10 0 6 5 10 10 10 6 0 10 -4 10 -10z m320 0 c0
-5 -5 -10 -11 -10 -5 0 -7 5 -4 10 3 6 8 10 11 10 2 0 4 -4 4 -10z m-100 -4
c0 -3 -4 -8 -10 -11 -5 -3 -10 -1 -10 4 0 6 5 11 10 11 6 0 10 -2 10 -4z m417
-2 c-3 -3 -12 -4 -19 -1 -8 3 -5 6 6 6 11 1 17 -2 13 -5z m-1257 -36 c0 -4
-12 -3 -26 2 -14 6 -31 7 -37 3 -8 -4 -7 -1 1 9 10 13 17 14 37 4 14 -6 25
-14 25 -18z m235 23 c3 -5 0 -13 -6 -17 -7 -4 -9 -3 -5 4 3 5 0 13 -6 15 -9 4
-10 6 -1 6 6 1 14 -3 18 -8z m-36 -37 c-11 -13 -5 -19 16 -14 6 1 4 -5 -4 -12
-11 -10 -14 -10 -18 0 -3 6 -10 9 -16 5 -7 -3 -4 3 6 14 9 11 14 23 10 28 -5
4 -2 5 5 1 10 -6 10 -11 1 -22z m451 22 c0 -2 -8 -10 -17 -17 -16 -13 -17 -12
-4 4 13 16 21 21 21 13z m270 -12 c0 -2 -17 -4 -37 -3 -29 0 -33 2 -18 8 18 7
55 4 55 -5z m-1347 -29 c-10 -13 -20 -21 -22 -19 -8 7 22 53 31 48 4 -3 0 -16
-9 -29z m243 21 c12 -13 12 -15 -6 -13 -11 1 -20 7 -20 14 0 17 8 16 26 -1z
m994 -1 c0 -1 -12 -2 -26 -2 -17 0 -22 2 -13 7 10 7 39 3 39 -5z m-289 -22
c-12 -20 -14 -14 -5 12 4 9 9 14 11 11 3 -2 0 -13 -6 -23z m-261 13 c0 -3 -4
-8 -10 -11 -5 -3 -10 -1 -10 4 0 6 5 11 10 11 6 0 10 -2 10 -4z m-348 -13 c-6
-2 -10 -8 -7 -13 3 -4 -5 -6 -17 -2 -21 5 -21 6 -2 13 10 4 24 8 29 8 6 -1 4
-3 -3 -6z m233 -12 c-3 -6 -11 -11 -17 -11 -6 0 -6 6 2 15 14 17 26 13 15 -4z
m310 -10 c-6 -5 -25 10 -25 20 0 5 6 4 14 -3 8 -7 12 -15 11 -17z m178 22 c-7
-2 -19 -2 -25 0 -7 3 -2 5 12 5 14 0 19 -2 13 -5z m-901 -25 c16 16 32 15 18
0 -6 -7 -17 -22 -26 -33 -10 -13 -14 -15 -12 -5 1 8 -3 26 -10 40 -12 23 -12
24 2 6 13 -16 19 -17 28 -8z m103 12 c16 -6 14 -8 -12 -7 -18 0 -30 4 -27 9 6
10 12 9 39 -2z m210 1 c3 -5 0 -13 -6 -17 -7 -4 -9 -3 -5 4 3 6 -2 13 -11 15
-16 4 -16 5 -1 6 9 0 19 -3 23 -8z m-505 -11 c0 -5 -4 -10 -9 -10 -6 0 -13 5
-16 10 -3 6 1 10 9 10 9 0 16 -4 16 -10z m430 0 c0 -5 -5 -10 -11 -10 -5 0 -7
5 -4 10 3 6 8 10 11 10 2 0 4 -4 4 -10z m35 -10 c-4 -6 -1 -17 5 -25 10 -12 9
-15 -2 -15 -10 0 -14 8 -13 23 3 26 3 27 11 27 3 0 2 -5 -1 -10z m188 -11 c-6
-6 -19 -9 -29 -6 -16 4 -15 5 4 6 12 0 22 6 22 13 0 6 3 8 7 5 4 -4 2 -12 -4
-18z m82 11 c-3 -5 -16 -10 -28 -9 -21 0 -21 1 -2 9 28 12 37 12 30 0z m-655
-32 c0 -5 -4 -8 -10 -8 -5 0 -10 10 -10 23 0 18 2 19 10 7 5 -8 10 -18 10 -22z
m70 11 c0 -5 -4 -9 -10 -9 -5 0 -10 7 -10 16 0 8 5 12 10 9 6 -3 10 -10 10
-16z m120 15 c0 -11 -14 -34 -21 -34 -4 0 -5 7 -2 17 5 12 3 14 -7 8 -8 -5
-11 -4 -7 2 5 8 37 15 37 7z m105 -22 c-3 -3 -11 0 -18 7 -9 10 -8 11 6 5 10
-3 15 -9 12 -12z m-79 -11 c-4 -5 0 -12 6 -14 7 -3 -5 -5 -27 -5 -22 0 -30 3
-17 5 12 2 22 9 22 14 0 5 5 9 11 9 5 0 8 -4 5 -9z m141 3 c-3 -3 -12 -4 -19
-1 -8 3 -5 6 6 6 11 1 17 -2 13 -5z m-217 -19 c0 -10 -10 -15 -32 -15 -24 0
-29 3 -18 9 8 6 17 8 21 5 4 -2 10 0 14 6 9 14 15 12 15 -5z m163 8 c-13 -2
-33 -2 -45 0 -13 2 -3 4 22 4 25 0 35 -2 23 -4z m-233 -13 c0 -11 -48 -25 -57
-16 -4 3 3 6 15 6 12 0 22 5 22 10 0 6 5 10 10 10 6 0 10 -4 10 -10z m-1490
-2010 c0 -1067 -3 -1940 -7 -1940 -7 0 -14 1109 -13 2205 0 400 7 1666 9 1673
9 29 11 -307 11 -1938z m4871 -7 c-2 -1066 -7 -1913 -11 -1883 -3 30 -7 902
-8 1938 -2 1520 0 1882 10 1882 11 0 12 -371 9 -1937z m-4641 1613 c0 -3 -4
-8 -10 -11 -5 -3 -10 -1 -10 4 0 6 5 11 10 11 6 0 10 -2 10 -4z m116 -63 c-3
-3 -13 0 -21 7 -13 10 -13 15 -3 21 13 8 35 -17 24 -28z m64 -35 c0 -4 -7 -8
-15 -8 -8 0 -15 4 -15 8 0 5 7 9 15 9 8 0 15 -4 15 -9z m-179 -7 c7 11 9 10 9
-3 0 -10 -7 -18 -15 -18 -8 0 -15 8 -14 18 0 12 2 13 6 3 5 -11 7 -11 14 0z
m152 -31 c-3 -11 -7 -20 -9 -20 -2 0 -4 9 -4 20 0 11 4 20 9 20 5 0 7 -9 4
-20z m-446 -282 c-1 -51 -3 -10 -3 92 0 102 2 143 3 93 2 -51 2 -135 0 -185z
m436 209 c15 15 53 8 54 -9 1 -10 -3 -18 -8 -18 -6 0 -7 5 -4 10 3 6 2 10 -4
10 -5 0 -12 -6 -14 -12 -3 -7 -6 -4 -7 7 -1 20 -1 20 -15 1 -8 -10 -12 -23 -9
-27 11 -18 -9 -8 -27 14 -10 12 -18 17 -19 10 0 -7 -7 -10 -17 -7 -15 5 -15 3
1 -10 17 -14 18 -16 3 -16 -22 0 -22 -16 1 -44 13 -17 23 -21 37 -15 28 11 43
10 24 -1 -8 -5 -28 -11 -43 -14 -15 -3 -34 -10 -42 -17 -8 -6 -17 -9 -20 -6
-3 3 6 12 21 20 25 13 26 15 10 30 -9 10 -22 14 -28 10 -7 -4 -6 1 2 10 9 11
10 17 2 17 -6 0 -11 5 -11 11 0 6 7 8 16 5 8 -3 13 -2 9 3 -3 5 -2 16 1 25 7
18 35 16 58 -3 19 -16 22 -1 4 19 -11 12 -10 12 3 2 9 -6 19 -9 22 -5z m-143
-11 c0 -3 -4 -8 -10 -11 -5 -3 -10 -1 -10 4 0 6 5 11 10 11 6 0 10 -2 10 -4z
m192 -48 c-17 -17 -15 -28 3 -22 10 4 15 0 15 -12 0 -16 -2 -17 -10 -4 -9 13
-10 13 -11 0 0 -10 -4 -7 -11 7 -9 18 -15 20 -34 13 -16 -7 -24 -6 -24 1 0 8
-4 8 -13 0 -14 -11 -27 -5 -27 11 0 5 20 8 45 7 25 -2 51 3 57 9 6 6 14 9 17
7 2 -3 -1 -11 -7 -17z m-178 -53 c9 -25 -9 -24 -20 0 -9 18 -9 22 2 18 7 -2
15 -11 18 -18z m46 10 c0 -7 -30 -13 -34 -7 -3 4 4 9 15 9 10 1 19 0 19 -2z
m106 -23 c-8 -13 -46 -22 -46 -11 0 5 9 9 20 9 11 0 20 5 20 12 0 6 3 9 6 5 3
-3 3 -10 0 -15z m-58 -37 c-3 -3 -9 2 -12 12 -6 14 -5 15 5 6 7 -7 10 -15 7
-18z m110 -21 c-3 -27 -4 -26 -9 8 -3 22 -1 34 4 29 5 -5 7 -21 5 -37z m-28
32 c0 -2 -7 -9 -15 -16 -13 -11 -14 -10 -9 4 5 14 24 23 24 12z m-135 -16 c3
-5 1 -10 -4 -10 -6 0 -11 5 -11 10 0 6 2 10 4 10 3 0 8 -4 11 -10z m-43 -22
c-7 -7 -12 -8 -12 -2 0 14 12 26 19 19 2 -3 -1 -11 -7 -17z m14 -22 c17 5 17
4 2 -5 -18 -12 -48 -5 -48 11 0 7 5 6 14 -1 7 -6 22 -9 32 -5z m74 -1 c-7 -9
-15 -13 -17 -11 -7 7 7 26 19 26 6 0 6 -6 -2 -15z m-44 -22 c-3 -23 -8 -27
-26 -25 -16 3 -20 0 -14 -10 6 -10 4 -10 -9 1 -23 18 -21 34 3 26 13 -4 23 0
32 14 16 27 17 26 14 -6z m152 -8 c-3 -3 -9 2 -12 12 -6 14 -5 15 5 6 7 -7 10
-15 7 -18z m20 -20 c0 -14 -3 -23 -6 -21 -3 3 -11 1 -19 -6 -9 -7 -7 0 4 20
10 18 19 32 19 32 1 0 2 -11 2 -25z m-108 -6 c-7 -11 -14 -19 -16 -16 -7 7 7
37 17 37 6 0 5 -9 -1 -21z m-66 -24 c-4 -8 -10 -15 -15 -15 -4 0 -6 7 -3 15 4
8 10 15 15 15 4 0 6 -7 3 -15z m121 -37 c5 4 5 1 1 -6 -6 -10 -11 -10 -22 -1
-8 6 -14 14 -14 16 0 3 6 0 13 -6 8 -6 18 -7 22 -3z m-115 -22 c0 -3 -4 -8
-10 -11 -5 -3 -10 -1 -10 4 0 6 5 11 10 11 6 0 10 -2 10 -4z m177 -18 c-3 -8
-6 -5 -6 6 -1 11 2 17 5 13 3 -3 4 -12 1 -19z m-212 -17 c-3 -6 -11 -11 -16
-11 -5 0 -4 6 3 14 14 16 24 13 13 -3z m43 -26 c-3 -3 -9 2 -12 12 -6 14 -5
15 5 6 7 -7 10 -15 7 -18z m139 -2 c-14 -14 -19 -15 -29 -4 -11 10 -10 11 3 6
10 -4 20 -2 24 4 3 6 9 11 13 11 3 0 -1 -8 -11 -17z m29 -21 c-10 -11 -16 -12
-16 -4 0 7 5 12 10 12 6 0 10 8 11 18 0 11 2 13 6 4 3 -8 -2 -21 -11 -30z
m4201 -54 c-3 -8 -6 -5 -6 6 -1 11 2 17 5 13 3 -3 4 -12 1 -19z m-4377 -92 c0
-11 -19 -15 -25 -6 -3 5 1 10 9 10 9 0 16 -2 16 -4z m60 -57 c0 -6 -4 -7 -10
-4 -5 3 -10 11 -10 16 0 6 5 7 10 4 6 -3 10 -11 10 -16z m7692 -59 c286 -39
276 -36 293 -71 14 -27 12 -41 -35 -226 -28 -109 -58 -222 -66 -250 -16 -56
-43 -83 -81 -83 -28 0 -63 37 -63 67 0 21 53 233 68 271 2 8 -49 -28 -114 -79
-510 -395 -1141 -699 -1785 -858 -221 -55 -517 -108 -709 -127 -57 -5 -68 -3
-92 16 -20 15 -28 30 -28 54 0 55 22 65 182 87 564 75 1090 230 1549 455 315
155 531 291 826 521 107 82 115 71 -77 99 -127 18 -160 36 -160 85 0 25 38 69
61 69 4 0 108 -14 231 -30z m-8105 -497 c-1 -93 -3 -17 -3 167 0 184 2 260 3
168 2 -93 2 -243 0 -335z m343 477 c0 -5 -5 -10 -11 -10 -5 0 -7 5 -4 10 3 6
8 10 11 10 2 0 4 -4 4 -10z m50 -34 c0 -2 -8 -10 -17 -17 -16 -13 -17 -12 -4
4 13 16 21 21 21 13z m150 -10 c0 -2 -7 -7 -16 -10 -8 -3 -12 -2 -9 4 6 10 25
14 25 6z m-180 -36 c0 -5 -5 -10 -11 -10 -5 0 -7 5 -4 10 3 6 8 10 11 10 2 0
4 -4 4 -10z m4627 -938 c-1 -152 -2 -25 -2 283 0 308 1 433 2 277 2 -156 2
-408 0 -560z m-4990 -424 c-1 -95 -3 -18 -3 172 0 190 2 267 3 173 2 -95 2
-251 0 -345z m260 -100 c-2 -24 -4 -5 -4 42 0 47 2 66 4 43 2 -24 2 -62 0 -85z
m0 -95 c-3 -10 -5 -2 -5 17 0 19 2 27 5 18 2 -10 2 -26 0 -35z m0 -85 c-2 -13
-4 -3 -4 22 0 25 2 35 4 23 2 -13 2 -33 0 -45z m0 -90 c-2 -13 -4 -3 -4 22 0
25 2 35 4 23 2 -13 2 -33 0 -45z m0 -95 c-2 -16 -4 -5 -4 22 0 28 2 40 4 28 2
-13 2 -35 0 -50z m0 -70 c-3 -10 -5 -4 -5 12 0 17 2 24 5 18 2 -7 2 -21 0 -30z
m0 -105 c-2 -13 -4 -5 -4 17 -1 22 1 32 4 23 2 -10 2 -28 0 -40z m0 -85 c-3
-10 -5 -2 -5 17 0 19 2 27 5 18 2 -10 2 -26 0 -35z m0 -75 c-2 -13 -4 -5 -4
17 -1 22 1 32 4 23 2 -10 2 -28 0 -40z m0 -80 c-3 -8 -6 -5 -6 6 -1 11 2 17 5
13 3 -3 4 -12 1 -19z m0 -65 c-3 -10 -5 -4 -5 12 0 17 2 24 5 18 2 -7 2 -21 0
-30z m0 -85 c-3 -8 -6 -5 -6 6 -1 11 2 17 5 13 3 -3 4 -12 1 -19z"/>
<path d="M4544 8685 c-34 -23 -54 -77 -54 -145 0 -104 39 -160 113 -160 85 0
127 53 127 160 0 107 -42 160 -127 160 -21 0 -48 -7 -59 -15z"/>
<path d="M3435 8700 c-81 -33 -109 -186 -51 -272 52 -78 158 -70 196 14 42 93
14 225 -54 253 -39 17 -61 18 -91 5z"/>
<path d="M4046 8500 c-66 -5 -82 -10 -98 -30 -22 -27 -17 -67 9 -87 21 -16 97
-17 126 -2 36 18 57 52 57 92 0 20 -3 36 -7 35 -5 0 -43 -4 -87 -8z"/>
<path d="M5385 8702 c-64 -21 -89 -65 -89 -156 -1 -112 44 -172 126 -170 75 2
125 83 116 184 -11 106 -76 167 -153 142z"/>
<path d="M7648 8501 c-86 -8 -118 -27 -118 -71 0 -40 28 -60 87 -60 42 0 56 5
82 29 25 23 31 37 31 70 0 23 -1 40 -2 39 -2 0 -38 -4 -80 -7z"/>
<path d="M2609 8685 c-82 -45 -78 -255 6 -293 108 -49 192 48 170 195 -10 65
-57 113 -111 113 -22 -1 -51 -7 -65 -15z"/>
<path d="M8165 8691 c-85 -35 -102 -206 -28 -283 22 -23 35 -28 73 -28 83 0
120 48 120 155 0 79 -21 130 -61 150 -31 16 -73 18 -104 6z"/>
<path d="M2401 7674 c-80 -67 -63 -253 26 -290 102 -43 180 57 158 203 -15
100 -113 147 -184 87z"/>
<path d="M4165 7499 c-44 -3 -88 -9 -98 -14 -20 -8 -32 -45 -23 -73 15 -47
126 -54 172 -11 22 20 41 77 33 96 -2 4 -40 5 -84 2z"/>
<path d="M4666 7679 c-14 -11 -33 -34 -41 -49 -20 -39 -19 -143 1 -186 40 -83
156 -85 196 -4 23 45 24 150 2 196 -29 62 -107 83 -158 43z"/>
<path d="M5245 7678 c-36 -28 -55 -76 -55 -137 0 -103 45 -161 125 -161 97 0
148 164 84 269 -32 54 -105 67 -154 29z"/>
<path d="M5831 7697 c-54 -19 -75 -56 -79 -140 -6 -121 35 -183 121 -181 56 2
93 42 109 117 14 64 1 136 -30 171 -14 15 -73 48 -84 45 -2 0 -18 -5 -37 -12z"/>
<path d="M8343 7700 c-25 -10 -63 -66 -63 -92 0 -16 12 -18 115 -18 l115 0 -6
28 c-18 77 -86 112 -161 82z"/>
<path d="M2649 6655 c-79 -44 -78 -219 2 -260 45 -24 77 -19 114 18 79 79 44
239 -56 252 -20 3 -45 -1 -60 -10z"/>
<path d="M3307 6662 c-20 -59 -37 -110 -37 -114 0 -5 36 -8 80 -8 l79 0 -40
112 c-22 62 -41 113 -42 115 -1 1 -19 -46 -40 -105z"/>
<path d="M1845 6499 c-56 -16 -71 -63 -32 -99 18 -17 31 -21 66 -17 53 6 86
37 94 90 l6 37 -52 -1 c-29 0 -65 -5 -82 -10z"/>
<path d="M6611 6654 c-19 -14 -51 -69 -51 -89 0 -3 49 -5 109 -5 l110 0 -10
33 c-19 68 -102 100 -158 61z"/>
<path d="M8596 6638 c-80 -80 -42 -241 59 -255 70 -9 125 56 125 148 0 119
-109 182 -184 107z"/>
<path d="M3592 5845 c-85 -37 -84 -224 1 -260 70 -29 140 16 152 98 16 115
-65 201 -153 162z"/>
<path d="M6005 5851 c-32 -14 -53 -43 -64 -91 -15 -68 3 -130 49 -167 19 -15
85 -17 112 -2 44 24 64 149 33 209 -25 48 -82 70 -130 51z"/>
<path d="M2223 5685 c-39 -17 -50 -48 -29 -80 20 -31 55 -40 99 -26 45 15 66
40 74 85 l6 36 -59 0 c-33 -1 -73 -7 -91 -15z"/>
<path d="M2782 5844 c-22 -15 -52 -63 -52 -84 0 -6 38 -10 105 -10 l105 0 -6
28 c-15 66 -99 103 -152 66z"/>
<path d="M3993 5685 c-39 -17 -50 -48 -29 -80 20 -31 55 -40 99 -26 45 15 66
40 74 85 l6 36 -59 0 c-33 -1 -73 -7 -91 -15z"/>
<path d="M5191 5833 c-17 -16 -33 -40 -37 -55 l-6 -28 106 0 c58 0 106 2 106
5 0 3 -6 21 -14 39 -29 69 -102 87 -155 39z"/>
<path d="M5583 5685 c-39 -17 -50 -48 -29 -80 20 -31 55 -40 99 -26 45 15 66
40 74 85 l6 36 -59 0 c-33 -1 -73 -7 -91 -15z"/>
<path d="M6982 5847 c-19 -9 -62 -72 -62 -92 0 -3 47 -5 105 -5 l105 0 0 26
c0 38 -50 84 -92 83 -18 0 -43 -5 -56 -12z"/>
<path d="M7731 5846 c-26 -15 -50 -51 -51 -78 0 -16 11 -18 100 -18 l100 0 0
26 c0 38 -50 84 -92 84 -18 -1 -44 -7 -57 -14z"/>
<path d="M3060 4666 c0 -2 7 -9 15 -16 13 -11 14 -10 9 4 -5 14 -24 23 -24 12z"/>
<path d="M3194 4382 c3 -6 1 -13 -4 -15 -6 -3 -5 -4 2 -3 7 2 21 -1 31 -6 26
-13 20 -3 -9 17 -15 9 -24 12 -20 7z"/>
<path d="M3270 4335 c14 -8 30 -14 35 -14 6 0 -1 6 -15 14 -14 8 -29 14 -35
14 -5 0 1 -6 15 -14z"/>
<path d="M3390 4313 c30 -2 59 -8 65 -14 12 -12 28 -12 21 0 -4 5 0 12 6 14 7
3 -23 5 -67 4 -62 0 -68 -2 -25 -4z"/>
<path d="M3505 4310 c3 -5 1 -10 -6 -10 -7 0 -9 -3 -6 -6 4 -4 13 -1 22 6 13
10 15 9 15 -7 0 -15 -7 -18 -37 -17 -21 1 -44 -3 -52 -9 -7 -6 -20 -12 -28
-13 -9 -2 -23 -10 -32 -18 -14 -15 -13 -16 4 -16 16 0 17 -2 6 -9 -10 -7 -7
-9 11 -8 16 1 24 7 21 15 -3 6 0 12 7 12 6 0 8 4 5 10 -8 13 39 24 69 16 18
-4 28 -1 35 11 5 10 13 14 17 10 4 -4 2 -13 -4 -19 -14 -14 -16 -48 -3 -48 6
0 13 5 16 10 11 18 47 -9 40 -31 -8 -23 8 -25 26 -2 11 13 11 17 2 20 -7 3
-13 9 -13 15 0 6 7 8 15 4 20 -7 19 1 -5 26 -14 16 -17 25 -9 34 8 10 6 12
-10 11 -16 -1 -20 -6 -15 -22 4 -11 11 -23 16 -26 6 -4 6 -9 -1 -13 -6 -4 -11
-3 -11 3 0 5 -7 17 -15 25 -12 12 -14 20 -5 36 6 11 7 20 1 20 -5 0 -11 -7
-15 -15 -3 -8 -11 -15 -17 -15 -8 0 -8 4 1 15 11 13 8 15 -19 15 -19 0 -30 -4
-26 -10z m75 -59 c0 -5 -7 -11 -14 -14 -10 -4 -13 -1 -9 9 6 15 23 19 23 5z
m-160 -11 c0 -5 -5 -10 -11 -10 -5 0 -7 5 -4 10 3 6 8 10 11 10 2 0 4 -4 4
-10z"/>
<path d="M3353 4293 c-7 -2 -13 -9 -13 -15 0 -7 5 -6 14 1 14 12 42 11 65 -3
9 -6 12 -5 9 5 -5 14 -52 21 -75 12z"/>
<path d="M3801 4263 c-6 -14 -9 -28 -7 -31 3 -3 9 4 13 14 3 10 11 22 16 25 6
4 5 9 0 12 -6 4 -15 -5 -22 -20z"/>
<path d="M3280 4270 c0 -5 5 -10 11 -10 5 0 7 5 4 10 -3 6 -8 10 -11 10 -2 0
-4 -4 -4 -10z"/>
<path d="M3327 4259 c7 -7 15 -10 18 -7 3 3 -2 9 -12 12 -14 6 -15 5 -6 -5z"/>
<path d="M3300 4239 c0 -5 5 -7 10 -4 6 3 10 8 10 11 0 2 -4 4 -10 4 -5 0 -10
-5 -10 -11z"/>
<path d="M3112 4224 c10 -10 20 -16 22 -13 3 3 -5 11 -17 18 -21 13 -21 12 -5
-5z"/>
<path d="M3236 4232 c-2 -4 -1 -14 4 -22 7 -11 9 -9 7 8 -1 24 -3 26 -11 14z"/>
<path d="M3310 4224 c-19 -10 -26 -10 -32 -1 -5 7 -8 3 -8 -12 0 -20 3 -22 12
-13 7 7 18 12 26 12 7 0 20 7 28 15 19 18 8 18 -26 -1z"/>
<path d="M3451 4233 c-1 -7 8 -17 19 -23 14 -7 20 -7 20 0 0 5 -6 10 -14 10
-8 0 -17 6 -19 13 -4 9 -6 9 -6 0z"/>
<path d="M3681 4225 c-24 -13 -41 -33 -41 -48 0 -11 58 34 64 50 3 7 4 13 3
12 -1 -1 -13 -7 -26 -14z"/>
<path d="M3046 4215 c-11 -8 -15 -15 -9 -15 6 0 16 7 23 15 16 19 11 19 -14 0z"/>
<path d="M3215 4200 c10 -11 20 -20 23 -20 3 0 -3 9 -13 20 -10 11 -20 20 -23
20 -3 0 3 -9 13 -20z"/>
<path d="M3568 4214 c-4 -4 -5 -11 -2 -15 7 -13 34 -11 34 2 0 5 -4 8 -9 5 -5
-4 -11 -1 -13 5 -2 5 -7 7 -10 3z"/>
<path d="M3110 4196 c0 -2 7 -7 16 -10 8 -3 12 -2 9 4 -6 10 -25 14 -25 6z"/>
<path d="M3151 4187 c2 -1 13 -9 24 -17 19 -14 19 -14 6 3 -7 9 -18 17 -24 17
-6 0 -8 -1 -6 -3z"/>
<path d="M2111 4164 c0 -11 3 -14 6 -6 3 7 2 16 -1 19 -3 4 -6 -2 -5 -13z"/>
<path d="M3050 4160 c-8 -5 -10 -10 -5 -10 6 0 17 5 25 10 8 5 11 10 5 10 -5
0 -17 -5 -25 -10z"/>
<path d="M3156 4157 c3 -10 9 -15 12 -12 3 3 0 11 -7 18 -10 9 -11 8 -5 -6z"/>
<path d="M2828 4153 c6 -2 18 -2 25 0 6 3 1 5 -13 5 -14 0 -19 -2 -12 -5z"/>
<path d="M2860 4140 c-9 -6 -10 -10 -3 -10 6 0 15 5 18 10 8 12 4 12 -15 0z"/>
<path d="M3010 4115 c-7 -9 -8 -15 -2 -15 5 0 12 7 16 15 3 8 4 15 2 15 -2 0
-9 -7 -16 -15z"/>
<path d="M3039 4120 c-1 -5 -2 -14 -3 -20 0 -5 -10 -16 -21 -24 -19 -15 -19
-15 4 -9 23 6 41 -9 41 -33 0 -16 -46 -24 -59 -11 -8 8 -11 8 -11 -1 0 -6 8
-16 18 -21 16 -10 16 -10 0 -11 -9 0 -20 -4 -23 -10 -7 -12 21 -2 53 18 28 18
28 8 0 -20 -13 -13 -29 -21 -37 -20 -10 3 -10 -1 2 -13 18 -18 37 -12 37 10 0
17 89 87 101 79 5 -3 9 2 9 11 0 12 -4 14 -19 5 -27 -14 -31 -13 -24 8 3 9 3
14 -1 10 -7 -5 -13 -26 -15 -50 -2 -20 -18 -5 -17 15 1 12 -6 28 -15 34 -18
14 -20 35 -4 43 6 3 11 -5 13 -17 2 -13 7 -23 12 -23 6 0 6 10 0 24 -5 13 -6
27 -3 30 4 3 -3 6 -15 6 -12 0 -23 -4 -23 -10z"/>
<path d="M2760 4105 c-7 -9 -8 -15 -2 -15 5 0 12 7 16 15 3 8 4 15 2 15 -2 0
-9 -7 -16 -15z"/>
<path d="M2970 4100 c-9 -6 -10 -10 -3 -10 6 0 15 5 18 10 8 12 4 12 -15 0z"/>
<path d="M3200 4100 c-12 -8 -10 -10 8 -10 13 0 20 4 17 10 -7 12 -6 12 -25 0z"/>
<path d="M3105 4090 c-3 -5 1 -10 10 -10 9 0 13 5 10 10 -3 6 -8 10 -10 10 -2
0 -7 -4 -10 -10z"/>
<path d="M2670 4080 c0 -5 5 -10 10 -10 6 0 10 5 10 10 0 6 -4 10 -10 10 -5 0
-10 -4 -10 -10z"/>
<path d="M2937 4079 c7 -7 15 -10 18 -7 3 3 -2 9 -12 12 -14 6 -15 5 -6 -5z"/>
<path d="M2112 4050 c0 -14 2 -19 5 -12 2 6 2 18 0 25 -3 6 -5 1 -5 -13z"/>
<path d="M2883 4039 c-1 -10 2 -19 8 -19 5 0 9 5 9 11 0 5 5 7 10 4 6 -3 10
-4 10 -1 0 3 -8 10 -18 15 -14 8 -18 6 -19 -10z"/>
<path d="M3020 4056 c0 -2 8 -10 18 -17 15 -13 16 -12 3 4 -13 16 -21 21 -21
13z"/>
<path d="M2769 4033 c-12 -16 -12 -17 2 -6 9 7 20 9 24 5 5 -4 5 -1 1 6 -9 16
-11 15 -27 -5z"/>
<path d="M2920 4020 c-30 -33 -35 -50 -16 -50 7 0 19 -7 26 -15 9 -11 9 -15 1
-15 -7 0 -9 -5 -5 -11 10 -17 24 12 14 31 -15 27 1 80 23 80 6 0 1 -41 -8 -62
-4 -10 -3 -18 2 -18 10 0 11 3 15 55 4 39 -19 42 -52 5z m2 -32 c-7 -7 -12 -8
-12 -2 0 6 3 14 7 17 3 4 9 5 12 2 2 -3 -1 -11 -7 -17z"/>
<path d="M3337 4035 c3 -8 9 -12 14 -9 12 7 11 11 -5 17 -10 4 -13 1 -9 -8z"/>
<path d="M2111 4004 c0 -11 3 -14 6 -6 3 7 2 16 -1 19 -3 4 -6 -2 -5 -13z"/>
<path d="M2526 4012 c-2 -4 -1 -14 4 -22 7 -11 9 -9 7 8 -1 24 -3 26 -11 14z"/>
<path d="M2668 3999 c24 -28 29 -49 10 -49 -6 0 -9 -2 -6 -5 9 -9 58 6 58 17
0 5 -5 6 -11 3 -13 -8 -40 26 -32 40 4 5 3 7 -2 3 -4 -4 -15 -2 -24 4 -9 7 -6
1 7 -13z"/>
<path d="M3150 4009 c0 -5 4 -7 10 -4 6 3 7 -1 4 -9 -3 -9 -2 -16 4 -16 12 0
23 26 15 34 -10 10 -33 7 -33 -5z"/>
<path d="M2620 3999 c0 -5 5 -7 10 -4 6 3 10 8 10 11 0 2 -4 4 -10 4 -5 0 -10
-5 -10 -11z"/>
<path d="M3110 4006 c0 -2 7 -7 16 -10 8 -3 12 -2 9 4 -6 10 -25 14 -25 6z"/>
<path d="M2865 3990 c3 -5 8 -10 11 -10 2 0 4 5 4 10 0 6 -5 10 -11 10 -5 0
-7 -4 -4 -10z"/>
<path d="M2480 3980 c0 -5 5 -10 10 -10 6 0 10 5 10 10 0 6 -4 10 -10 10 -5 0
-10 -4 -10 -10z"/>
<path d="M2646 3975 c4 -8 13 -15 21 -15 12 0 12 2 -1 15 -8 8 -17 15 -20 15
-3 0 -3 -7 0 -15z"/>
<path d="M2740 3974 c0 -8 5 -12 10 -9 6 4 8 11 5 16 -9 14 -15 11 -15 -7z"/>
<path d="M2793 3983 c-7 -3 -13 -12 -13 -21 0 -11 3 -13 8 -6 4 7 18 14 32 16
22 3 23 4 5 9 -11 3 -26 4 -32 2z"/>
<path d="M2445 3969 c-4 -6 -5 -12 -2 -15 2 -3 7 2 10 11 7 17 1 20 -8 4z"/>
<path d="M2112 3950 c0 -14 2 -19 5 -12 2 6 2 18 0 25 -3 6 -5 1 -5 -13z"/>
<path d="M2505 3961 c-3 -5 -1 -12 5 -16 5 -3 10 1 10 9 0 18 -6 21 -15 7z"/>
<path d="M2600 3960 c-13 -8 -13 -11 0 -24 13 -13 17 -12 30 2 13 14 12 15 -3
9 -9 -3 -17 -2 -17 2 0 5 6 12 13 14 6 3 8 6 2 6 -5 0 -17 -4 -25 -9z"/>
<path d="M2460 3956 c0 -2 7 -7 16 -10 8 -3 12 -2 9 4 -6 10 -25 14 -25 6z"/>
<path d="M2827 3954 c-17 -18 -7 -34 18 -28 16 4 25 2 25 -6 0 -6 5 -8 10 -5
6 3 10 2 10 -3 0 -5 7 -9 16 -9 14 0 14 2 -2 14 -10 7 -21 13 -26 13 -4 0 -6
6 -4 13 1 6 1 9 -1 5 -7 -12 -31 -10 -35 3 -2 5 -7 7 -11 3z"/>
<path d="M3048 3936 c-4 -19 -1 -22 14 -18 13 3 16 8 8 17 -5 6 -7 15 -3 18 3
4 2 7 -4 7 -6 0 -13 -11 -15 -24z"/>
<path d="M3080 3948 c0 -4 5 -8 11 -8 5 0 7 -4 4 -10 -3 -5 1 -10 9 -10 9 0
16 8 16 18 0 11 -7 18 -20 18 -11 0 -20 -4 -20 -8z"/>
<path d="M2970 3931 c0 -12 5 -21 10 -21 6 0 10 6 10 14 0 8 -4 18 -10 21 -5
3 -10 -3 -10 -14z"/>
<path d="M2377 3929 c7 -7 15 -10 18 -7 3 3 -2 9 -12 12 -14 6 -15 5 -6 -5z"/>
<path d="M2703 3925 c-17 -19 -16 -30 0 -16 8 6 17 8 21 4 4 -4 4 0 0 10 -7
20 -6 20 -21 2z"/>
<path d="M2111 3880 c0 -32 2 -40 9 -29 5 9 6 28 0 45 -8 27 -8 26 -9 -16z"/>
<path d="M2425 3910 c-3 -5 -1 -10 4 -10 6 0 11 5 11 10 0 6 -2 10 -4 10 -3 0
-8 -4 -11 -10z"/>
<path d="M2751 3915 c0 -5 3 -16 8 -24 7 -11 12 -9 22 10 11 21 11 23 -3 11
-13 -10 -17 -10 -21 0 -3 7 -6 9 -6 3z"/>
<path d="M2145 3900 c-3 -5 -1 -10 4 -10 6 0 11 5 11 10 0 6 -2 10 -4 10 -3 0
-8 -4 -11 -10z"/>
<path d="M2456 3902 c-3 -5 1 -9 9 -9 8 0 12 4 9 9 -3 4 -7 8 -9 8 -2 0 -6 -4
-9 -8z"/>
<path d="M2596 3894 c-24 -24 -19 -30 7 -8 12 10 24 20 26 21 2 2 -1 3 -7 3
-6 0 -18 -7 -26 -16z"/>
<path d="M2825 3900 c-16 -7 -17 -9 -3 -9 9 -1 20 4 23 9 7 11 7 11 -20 0z"/>
<path d="M2210 3890 c0 -5 5 -10 11 -10 5 0 7 5 4 10 -3 6 -8 10 -11 10 -2 0
-4 -4 -4 -10z"/>
<path d="M2413 3883 c-16 -6 -17 -33 -1 -33 6 0 8 3 5 7 -4 3 -2 12 4 20 12
14 11 14 -8 6z"/>
<path d="M2294 3869 c-3 -6 -2 -15 3 -20 5 -5 9 -1 9 11 0 23 -2 24 -12 9z"/>
<path d="M2367 3869 c7 -7 15 -10 18 -7 3 3 -2 9 -12 12 -14 6 -15 5 -6 -5z"/>
<path d="M2550 3865 c-11 -13 -10 -14 4 -9 9 3 16 10 16 15 0 13 -6 11 -20 -6z"/>
<path d="M2190 3856 c0 -2 7 -7 16 -10 8 -3 12 -2 9 4 -6 10 -25 14 -25 6z"/>
<path d="M2234 3841 c0 -11 5 -17 13 -14 10 4 11 9 2 19 -15 18 -15 18 -15 -5z"/>
<path d="M2110 3760 c0 -40 3 -71 6 -67 4 3 6 33 6 67 0 34 -2 64 -6 67 -3 4
-6 -27 -6 -67z"/>
<path d="M2230 3800 c0 -5 5 -10 10 -10 6 0 10 5 10 10 0 6 -4 10 -10 10 -5 0
-10 -4 -10 -10z"/>
<path d="M2166 3765 c4 -8 10 -12 15 -9 11 6 2 24 -11 24 -5 0 -7 -7 -4 -15z"/>
<path d="M2190 3730 c-13 -8 -12 -10 3 -10 9 0 17 5 17 10 0 12 -1 12 -20 0z"/>
<path d="M2233 3722 c-20 -16 -21 -19 -7 -42 12 -21 14 -22 12 -5 -2 14 2 19
14 17 9 -1 20 3 24 9 5 9 2 10 -10 6 -14 -6 -16 -3 -11 13 8 24 6 24 -22 2z"/>
<path d="M2111 3631 c-1 -56 8 -67 11 -15 1 16 9 38 17 49 15 18 15 19 -1 7
-13 -10 -17 -10 -21 0 -3 7 -6 -11 -6 -41z"/>
<path d="M2159 3653 c-13 -17 -13 -17 6 -3 11 8 22 16 24 17 2 2 0 3 -6 3 -6
0 -17 -8 -24 -17z"/>
<path d="M2215 3651 c3 -5 2 -11 -2 -14 -5 -2 -2 -2 5 0 8 1 12 -3 9 -9 -2 -7
-11 -13 -20 -13 -8 0 -19 -4 -23 -8 -4 -4 0 -7 9 -7 10 0 16 -3 16 -7 -4 -23
3 -33 21 -33 11 0 20 5 20 11 0 6 -7 9 -15 6 -26 -11 -27 13 -1 25 14 6 26 15
26 20 0 5 -4 6 -10 3 -5 -3 -10 0 -10 8 0 8 -7 18 -16 21 -8 3 -13 2 -9 -3z"/>
<path d="M2150 3620 c-9 -6 -10 -10 -3 -10 6 0 15 5 18 10 8 12 4 12 -15 0z"/>
<path d="M2257 3583 c3 -7 9 -13 14 -13 5 0 9 6 9 13 0 8 -6 14 -14 14 -8 0
-12 -6 -9 -14z"/>
<path d="M10977 3573 c-4 -3 -7 -366 -7 -805 0 -695 2 -803 15 -828 33 -64
-39 -60 1222 -60 891 0 1153 3 1172 13 13 6 34 25 45 40 21 28 21 32 21 820 0
436 -3 800 -7 810 -7 16 -75 17 -1231 17 -673 0 -1227 -3 -1230 -7z m1482
-307 c8 -9 11 -79 9 -232 l-3 -219 -280 0 -280 0 -3 219 c-2 153 1 223 9 232
9 11 63 14 274 14 211 0 265 -3 274 -14z m770 0 c8 -9 11 -79 9 -232 l-3 -219
-280 0 -280 0 -3 219 c-2 153 1 223 9 232 9 11 63 14 274 14 211 0 265 -3 274
-14z m-1511 -896 c1 -113 0 -215 -3 -227 l-5 -23 -273 0 c-199 0 -276 3 -285
12 -13 13 -18 429 -5 441 4 4 133 6 287 5 l281 -3 3 -205z m747 -20 l0 -225
-269 -3 c-190 -2 -273 1 -282 9 -11 9 -14 55 -14 214 0 112 3 211 6 219 6 15
37 16 283 14 l276 -3 0 -225z m775 161 c5 -11 10 -28 10 -37 0 -10 -77 -96
-172 -191 -134 -135 -178 -173 -198 -173 -30 1 -210 167 -210 194 0 26 46 66
75 66 18 0 41 -16 77 -52 l51 -52 133 137 c74 75 142 140 151 146 21 11 67
-10 83 -38z"/>
<path d="M4230 3063 l0 -78 -33 -15 c-45 -21 -45 -56 1 -54 l32 2 0 -57 c1
-80 28 -153 63 -169 24 -12 33 -11 65 5 24 12 38 26 40 42 5 36 -11 44 -40 21
-15 -11 -30 -20 -35 -20 -19 0 -33 52 -33 119 l0 68 51 6 c57 7 81 21 72 43
-4 12 -20 15 -67 13 l-61 -3 -5 75 c-5 67 -7 74 -27 77 -22 3 -23 1 -23 -75z"/>
<path d="M4512 3108 c-28 -28 3 -83 33 -58 8 7 15 20 15 29 0 17 -18 41 -30
41 -3 0 -11 -5 -18 -12z"/>
<path d="M5090 3058 c-103 -52 -141 -202 -65 -252 42 -28 83 -20 125 22 l38
38 6 -29 c11 -55 7 -157 -6 -162 -7 -2 -152 -20 -323 -40 -1091 -125 -1476
-169 -1754 -200 -279 -32 -371 -45 -303 -45 26 0 1481 164 2087 235 159 19
292 32 295 29 3 -3 -8 -17 -23 -30 -32 -28 -88 -32 -107 -9 -16 19 -49 19 -56
1 -9 -24 14 -54 51 -66 75 -25 162 15 185 85 6 19 17 35 23 35 7 0 145 16 307
35 162 19 300 35 307 35 7 0 13 4 13 10 0 5 -6 7 -12 5 -7 -2 -137 -18 -288
-35 -151 -17 -289 -33 -306 -36 l-31 -6 -2 92 c-2 118 -34 269 -62 293 -28 22
-46 22 -99 -5z m68 -83 c6 -68 -44 -144 -87 -130 -49 15 -31 112 29 153 43 29
54 25 58 -23z"/>
<path d="M3406 3018 c-8 -18 -31 -88 -51 -155 -21 -68 -41 -123 -45 -123 -4 0
-12 17 -18 38 -17 55 -96 215 -115 230 -21 18 -56 6 -62 -21 -9 -47 -14 -129
-16 -292 l-3 -170 25 0 c27 0 25 -17 37 255 l7 155 60 -140 c50 -116 64 -141
83 -143 19 -3 26 5 46 51 14 29 37 95 53 145 28 93 43 114 43 65 0 -16 11 -90
24 -167 25 -146 42 -184 70 -156 13 13 13 22 1 67 -8 29 -23 118 -35 198 -24
168 -33 195 -67 195 -18 0 -28 -9 -37 -32z"/>
<path d="M4778 3014 c-16 -8 -28 -18 -28 -22 0 -4 -10 -18 -21 -32 l-21 -25 6
27 c5 20 1 30 -13 37 -36 20 -45 -9 -38 -128 7 -118 12 -141 32 -141 20 0 25
12 36 81 17 104 69 180 99 144 6 -8 19 -57 28 -109 18 -100 33 -129 54 -108 9
9 9 33 0 108 -14 110 -32 156 -68 173 -31 14 -33 14 -66 -5z"/>
<path d="M4506 2981 c-11 -18 6 -250 20 -269 11 -15 14 -15 28 -2 13 13 14 35
8 145 -7 123 -8 130 -29 133 -11 2 -24 -1 -27 -7z"/>
<path d="M3969 2944 c-14 -9 -36 -32 -50 -52 -20 -30 -24 -48 -24 -109 0 -68
2 -74 32 -104 26 -26 41 -33 85 -37 44 -3 62 1 108 25 37 19 58 38 64 56 13
36 1 45 -32 24 -63 -40 -114 -59 -140 -52 -42 10 -62 34 -62 74 l0 37 40 -4
c53 -5 85 3 110 30 26 28 26 82 0 108 -25 25 -94 27 -131 4z m91 -44 c12 -7
12 -13 4 -27 -12 -20 -44 -28 -80 -19 -30 8 -23 23 20 42 38 16 37 16 56 4z"/>
<path d="M3682 2913 c-75 -37 -109 -174 -62 -251 20 -32 71 -62 107 -62 63 0
153 54 153 90 0 30 -13 30 -59 -1 -75 -50 -149 -34 -167 36 -9 35 -1 40 63 41
50 0 59 4 84 32 73 82 -15 166 -119 115z m93 -53 c13 -21 -17 -40 -61 -40 -49
0 -55 11 -22 34 26 18 74 21 83 6z"/>
<path d="M5326 2248 c-9 -12 -16 -27 -16 -32 0 -15 -72 -166 -79 -166 -3 0
-24 30 -46 66 -53 87 -90 122 -113 108 -15 -10 -17 -29 -14 -180 2 -93 8 -173
13 -179 6 -6 16 -6 27 1 15 10 17 26 13 135 -2 70 0 120 5 116 5 -5 27 -39 50
-75 32 -53 46 -67 65 -67 20 0 31 14 71 95 39 80 47 91 52 70 36 -168 50 -228
58 -242 10 -20 33 -24 43 -8 8 12 -64 350 -77 368 -16 18 -35 15 -52 -10z"/>
<path d="M4793 2208 c-4 -7 -31 -94 -59 -193 -37 -127 -49 -184 -42 -192 21
-26 38 -12 56 48 l19 62 63 19 c34 11 63 18 65 16 1 -2 14 -29 28 -60 27 -61
36 -68 57 -43 10 12 9 24 -5 63 -29 77 -114 255 -132 274 -19 21 -38 23 -50 6z
m77 -183 c0 -6 -18 -16 -40 -22 -47 -12 -48 -9 -23 75 l16 57 23 -50 c13 -27
24 -55 24 -60z"/>
<path d="M4295 2153 c-74 -18 -125 -163 -95 -272 17 -63 67 -111 115 -111 31
0 45 8 80 43 53 53 72 124 56 212 -20 107 -71 149 -156 128z m73 -65 c52 -56
49 -188 -5 -243 -41 -40 -81 -28 -104 32 -12 33 -11 125 2 160 14 37 48 73 69
73 9 0 26 -10 38 -22z"/>
<path d="M3965 2113 c-60 -15 -107 -99 -107 -193 -1 -184 136 -255 225 -117
61 93 41 250 -37 298 -31 19 -44 21 -81 12z m78 -84 c41 -56 31 -172 -19 -223
-33 -33 -57 -33 -82 -1 -40 50 -40 160 -1 223 16 28 25 33 51 30 20 -2 38 -13
51 -29z"/>
<path d="M3445 2073 c-120 -29 -145 -321 -32 -379 92 -48 191 48 191 186 0 84
-17 132 -60 170 -33 29 -54 34 -99 23z m64 -63 c36 -19 56 -107 40 -180 -11
-52 -53 -100 -88 -100 -55 0 -88 125 -57 213 25 69 60 91 105 67z"/>
<path d="M3200 2035 c-10 -12 -11 -53 -3 -190 10 -175 17 -203 47 -192 14 6
15 28 9 179 -7 208 -17 246 -53 203z"/>
<path d="M3697 2024 c-11 -12 -8 -41 6 -53 22 -17 55 12 41 36 -12 19 -36 28
-47 17z"/>
<path d="M3696 1834 c-8 -22 12 -56 31 -52 22 4 38 32 30 52 -8 21 -53 21 -61
0z"/>
<path d="M5670 1814 c-606 -70 -1274 -146 -2280 -259 -223 -25 -418 -50 -435
-55 -25 -8 -22 -9 20 -5 63 6 642 71 1100 124 363 42 756 87 1510 172 242 27
445 51 450 53 27 11 -107 0 -365 -30z"/>
<path d="M5744 1359 c-4 -7 -6 -36 -5 -65 l2 -53 -38 -3 c-30 -2 -38 -7 -38
-23 0 -16 8 -21 38 -23 l37 -3 0 -64 c0 -72 11 -109 35 -119 22 -8 52 9 60 35
9 27 -9 47 -28 31 -12 -10 -15 -2 -20 50 -6 70 -4 78 24 78 11 0 29 5 40 11
29 15 6 39 -37 39 l-33 0 -3 57 c-3 55 -18 78 -34 52z"/>
<path d="M5513 1349 c-40 -12 -83 -62 -83 -99 0 -35 21 -57 76 -81 80 -34 107
-85 64 -124 -15 -14 -29 -16 -64 -12 -33 5 -47 3 -57 -9 -19 -23 13 -44 68
-44 85 0 130 45 120 120 -7 53 -29 77 -95 106 -65 30 -75 49 -38 81 29 24 60
30 71 13 5 -8 11 -7 21 1 22 18 17 38 -12 49 -29 11 -28 11 -71 -1z"/>
<path d="M4745 1261 c-9 -9 0 -282 11 -338 4 -22 37 -33 47 -15 3 4 0 86 -7
182 -9 142 -14 175 -26 178 -9 1 -20 -2 -25 -7z"/>
<path d="M4450 1245 c-4 -5 -11 -87 -15 -180 -9 -212 -15 -203 123 -186 102
12 151 33 133 55 -8 9 -31 10 -106 1 -53 -6 -97 -9 -99 -6 -2 3 -1 32 1 64 l5
57 68 0 c47 0 71 4 80 15 21 25 1 35 -76 35 l-74 0 0 49 0 49 78 7 c83 6 107
14 107 36 0 11 -23 14 -108 14 -62 0 -112 -4 -117 -10z"/>
<path d="M4097 1203 c-4 -3 -7 -43 -7 -89 0 -90 -3 -94 -74 -94 l-29 0 7 79
c7 82 -2 108 -29 80 -16 -18 -38 -190 -26 -202 5 -5 41 -8 80 -5 l70 4 3 -76
c3 -67 5 -75 23 -75 18 0 20 8 23 75 2 52 7 77 17 83 19 10 19 36 0 43 -12 5
-15 24 -15 83 0 82 -17 120 -43 94z"/>
<path d="M5093 1156 c-10 -13 -23 -32 -30 -42 -11 -18 -12 -18 -12 3 -1 25
-26 53 -48 53 -9 0 -31 -16 -49 -36 l-34 -35 0 30 c0 24 -4 31 -19 31 -11 0
-21 -4 -23 -10 -5 -16 6 -208 13 -214 17 -17 37 9 42 55 7 54 44 132 61 126 6
-2 13 -37 16 -78 4 -64 8 -74 24 -74 14 0 23 15 38 65 19 62 50 111 63 98 4
-3 10 -46 13 -95 7 -83 8 -88 31 -91 l24 -4 -6 97 c-6 107 -22 145 -62 145
-13 0 -31 -10 -42 -24z"/>
<path d="M3659 1142 c-19 -17 -29 -34 -25 -40 10 -16 31 -15 46 3 19 22 77 19
90 -5 15 -27 -3 -52 -54 -76 -59 -27 -54 -48 13 -54 62 -7 92 -33 83 -75 -8
-42 -50 -68 -100 -61 -34 5 -44 2 -49 -11 -9 -22 23 -43 65 -43 90 0 157 81
133 162 -8 25 -23 45 -41 57 -27 16 -28 18 -13 34 24 24 20 83 -8 113 -33 36
-98 34 -140 -4z"/>
<path d="M3365 1114 c-43 -22 -65 -44 -65 -66 0 -23 21 -23 52 1 37 29 72 35
92 16 31 -31 15 -74 -75 -205 -87 -127 -80 -135 90 -100 62 12 102 26 115 39
30 30 3 35 -89 16 -43 -9 -80 -14 -82 -11 -3 2 9 25 26 50 46 66 81 146 81
184 0 24 -9 42 -29 63 -33 33 -70 37 -116 13z"/>
<path d="M3161 1096 c-9 -11 -9 -55 -1 -187 6 -96 15 -178 20 -183 5 -5 16 -6
25 -2 15 5 16 20 10 135 -13 237 -22 276 -54 237z"/>
<path d="M5937 1083 c-10 -10 -8 -51 2 -57 5 -4 16 -3 25 0 21 8 21 50 0 58
-19 7 -19 7 -27 -1z"/>
<path d="M5935 914 c-115 -13 -399 -44 -630 -69 -1994 -215 -2269 -246 -2274
-251 -8 -8 48 -4 220 16 195 22 1112 122 2169 235 388 41 719 79 735 84 46 14
10 11 -220 -15z"/>
</g>
</svg>
